<svg width="1330" height="980" viewBox="0 0 351.9 259.3" xml:space="preserve" xmlns="http://www.w3.org/2000/svg">
  <defs>
    <clipPath id="a">
      <path fill="#f9f9f9" stroke-linecap="round" stroke-width=".509" d="M77.89 232.1h149.6v110.4H77.89z"/>
    </clipPath>
    <filter id="b" x="-.027" y="-.038" width="1.053" height="1.075" color-interpolation-filters="sRGB">
      <feGaussianBlur stdDeviation="3.472"/>
    </filter>
  </defs>
  <g transform="matrix(2.353 0 0 2.349 -183.3 -545.1)" clip-path="url(#a)">
    <g stroke-linecap="round" stroke-width="1.2">
      <path d="M40.22 232.1h225.3v110.4H40.22z" fill="#c9304a" opacity=".75"/>
      <path d="M40.22 232.1v97.52l.71.545c2.222 1.707 5.479 3.52 7.562 4.21 1.678.554 3.281.826 5.309.897 2.291.081 4.074-.09 9.198-.883 4.57-.708 6.082-.854 7.84-.762 4.667.245 6.812 2.222 8.897 8.2l.226.648h185.6v-88.77l-.34-.014c-.186-.008-2.034-.223-4.105-.48-4.844-.599-7.388-.976-11.73-1.74-6.763-1.188-10.44-2.223-14.02-3.94-4.07-1.956-6.692-4.476-8.86-8.518-.479-.894-2.736-5.788-3.06-6.636l-.107-.278z" fill="#b4295e" opacity=".95"/>
      <path d="M40.22 232.1v70.61l1.204.97c6.431 5.184 12.86 7.808 19.12 7.808 2.362 0 4.28-.245 9.79-1.25 2.609-.476 5.385-.945 6.169-1.042 2.057-.256 4.626-.23 6.037.062 3.41.704 6.222 3.361 7.991 7.552.693 1.642 1.12 3.143 2.178 7.028 1.855 6.814 3.436 10.64 5.677 13.73.733 1.011 3.615 4.066 4.47 4.667l.345.242h162.3v-67.78l-.278-.012c-.153-.007-1.806-.2-3.673-.429-10.1-1.24-16.91-2.273-22.04-3.34-9.912-2.065-16.13-4.889-20.25-9.2-2.32-2.427-3.71-4.86-6.94-12.14-4.388-9.896-7.392-13.2-15.16-16.69l-1.728-.776h13.92l13.92-.001z" fill="#912d65" opacity=".95"/>
      <path d="M40.22 232.1v55.8l1.636 1.376c3.53 2.969 6.84 5.206 10.03 6.781 2.296 1.133 3.816 1.705 6.05 2.28 4.98 1.28 8.678 1.205 18.46-.373 10.34-1.668 13.9-1.777 17.59-.54 2.782.93 4.997 3.081 6.791 6.597 1.236 2.422 2.661 6.592 4.08 11.94 1.633 6.152 3.106 10.72 4.294 13.33 1.59 3.484 4.149 6.732 7.307 9.274 1.094.881 4.031 2.882 5.331 3.633l.472.273 143.3.01s-.042-46.8-.093-46.81c-.05-.008-.76-.09-1.575-.182-11.31-1.275-22.04-2.817-28.83-4.14-10.65-2.08-17.75-4.729-22.79-8.51-4.519-3.387-6.9-6.883-10.98-16.11-3.55-8.04-5.676-11.67-8.639-14.74-1.92-1.99-3.86-3.406-6.918-5.047-2.04-1.095-3.973-1.958-9.234-4.12-2.323-.956-5.168-2.2-6.323-2.767-4.409-2.163-6.85-4.193-8.16-6.788l-.562-1.11z" fill="#64305f" opacity=".95"/>
      <path d="m40.22 232.1.062 34.91 1.111.977c7.224 6.35 13.52 10.15 19.79 11.95 3.148.902 6.107 1.243 9.901 1.14 3.79-.103 6.49-.408 12.72-1.44 6.89-1.14 10.24-1.514 13.58-1.516 4.056-.002 6.657.584 9.004 2.029 3.369 2.073 5.796 5.934 8.101 12.89.495 1.494 1.16 3.66 1.477 4.815l1.56 5.679c2.734 9.954 4.446 14.11 7.469 18.14 3.151 4.197 7.212 7.316 15.29 11.74 7.242 3.969 10.89 6.329 13.76 8.91.15.135 111.5.161 111.5.161v-25.93l-.525-.016c-.289-.009-2.163-.201-4.167-.428-19.07-2.162-33.29-4.54-41.95-7.017-4.125-1.181-7.246-2.36-10.46-3.954-6.002-2.974-9.916-6.332-13.1-11.24-1.677-2.583-3.373-5.967-6.094-12.16-4.19-9.538-7.212-14.27-11.4-17.86-3.22-2.756-7.318-4.998-14.53-7.947-9.337-3.82-12.34-5.273-15.2-7.357-1.13-.825-2.92-2.671-3.633-3.75-1.21-1.827-1.872-4.19-1.993-7.103-.069-1.648.067-4.221.278-5.278l.068-.34z" fill="#3d2b4b" opacity=".95"/>
    </g>
    <path d="M179 341.5c-3.434-4.31-7.946-8.685-11.95-11.59-2.535-1.838-4.896-3.266-10.99-6.645-4.681-2.596-6.799-3.843-8.89-5.235-5.059-3.368-8.748-7.066-11.37-11.39-2.447-4.046-4.544-9.814-7.155-19.68-3.675-13.88-6.198-19.72-10.13-23.45-2.965-2.807-6.6-3.964-12.45-3.964-3.708 0-7.037.365-14.64 1.604-8.738 1.424-12.05 1.781-16.48 1.78-3.444 0-5.048-.153-7.878-.745-8.222-1.721-16.43-6.518-26.23-15.33l-1.019-.916v-13.93h42.97c23.63 0 42.97.042 42.97.093 0 .05-.191.981-.425 2.068-1.05 4.874-1.547 8.726-1.548 11.98-.001 5.187 1.15 8.422 4.06 11.4 2.993 3.068 7.156 5.374 16.63 9.215 8.862 3.593 12.94 5.556 16.54 7.965 5.107 3.418 8.793 7.823 12.5 14.94 1.147 2.2 1.982 3.993 4.31 9.26 2.825 6.385 5.173 10.91 7.052 13.58 4.712 6.705 11.56 11.4 21.76 14.91 8.946 3.08 22.44 5.672 43.52 8.36 1.246.158 9.249 1.075 13.74 1.573l1.266.14v4.898h-85.43z" fill="#2d273e"/>
  </g>
  <path fill="#202121" filter="url(#b)" d="M19.42 19.42h313.5v221.2H19.42z"/>
  <image href="demo_low.webp" width="313.5" height="221.2" x="19.42" y="19.42"/>
  <image href="demo_high.webp" width="313.5" height="221.2" x="19.42" y="19.42"/>
</svg>
