<svg xmlns="http://www.w3.org/2000/svg" xml:space="preserve" width="200mm" height="415.748" viewBox="0 0 200 110">
  <defs>
    <clipPath id="a" clipPathUnits="userSpaceOnUse">
      <rect width="183.6791" height="101.0235" x="60.8414" y="236.7421" ry="5.5104" style="opacity:.95;fill:#fff;fill-opacity:1;stroke-width:1.01994;stroke-linecap:round"/>
    </clipPath>
    <filter id="b" width="1.0733" height="1.1392" x="-.0366" y="-.0696" style="color-interpolation-filters:sRGB">
      <feGaussianBlur stdDeviation="2.9"/>
    </filter>
  </defs>
  <g transform="translate(-5 -93.5)">
    <g clip-path="url(#a)" transform="translate(-61.2475 -164.278) scale(1.0889)">
      <path d="M40.218 232.0642h225.3267v110.3792H40.218z" style="opacity:.95;fill:#c9304a;fill-opacity:1;stroke-width:1.2;stroke-linecap:round"/>
      <path d="M40.218 232.0642v97.5243l.71.5451c2.2218 1.7068 5.4792 3.52 7.5624 4.209 1.6785.5553 3.2813.8266 5.3087.8982 2.2909.081 4.074-.0905 9.1984-.8836 4.5701-.7074 6.0817-.8541 7.8403-.7617 4.6668.245 6.812 2.2222 8.8972 8.2l.2258.648h185.584V253.671l-.3395-.0139c-.1867-.008-2.034-.2233-4.1052-.4795-4.8437-.5993-7.3882-.9767-11.7295-1.74-6.7626-1.189-10.4448-2.2242-14.0183-3.9408-4.0712-1.9558-6.6922-4.4758-8.8599-8.5184-.479-.8932-2.7364-5.7879-3.0608-6.6362l-.1064-.278z" style="opacity:.95;fill:#b4295e;fill-opacity:1;stroke-width:1.2;stroke-linecap:round"/>
      <path d="M40.218 232.0642v70.6107l1.2036.9705c6.4311 5.1838 12.859 7.8083 19.1223 7.8078 2.3616-.0002 4.2805-.2456 9.7896-1.2506 2.6088-.4759 5.3847-.9445 6.1686-1.0418 2.0568-.2551 4.626-.2287 6.0374.0625 3.4102.7037 6.2224 3.361 7.9912 7.5515.6932 1.6424 1.1198 3.143 2.1775 7.028 1.8551 6.8145 3.4361 10.6393 5.6766 13.732.7327 1.0113 3.6147 4.066 4.4703 4.6666l.345.242h162.3447V274.66l-.278-.0119c-.1528-.007-1.8057-.1996-3.6732-.4289-10.097-1.2398-16.9127-2.2727-22.0384-3.3403-9.9124-2.0646-16.1281-4.8888-20.2489-9.2-2.3198-2.427-3.7097-4.8595-6.9401-12.1445-4.3881-9.8957-7.3918-13.2027-15.1604-16.693l-1.7285-.7767h13.9242l13.9237-.0005z" style="opacity:.95;fill:#912d65;fill-opacity:1;stroke-width:1.2;stroke-linecap:round"/>
      <path d="M40.218 232.0643v55.805l1.636 1.376c3.5297 2.9687 6.84 5.2064 10.0315 6.781 2.2956 1.1326 3.8155 1.7054 6.0498 2.2795 4.98 1.2796 8.6782 1.205 18.4583-.3726 10.3395-1.6678 13.897-1.7773 17.5937-.541 2.7821.9303 4.9966 3.0823 6.7908 6.5985 1.236 2.4222 2.661 6.5917 4.0799 11.9367 1.6332 6.1523 3.1062 10.7238 4.2938 13.3264 1.59 3.4844 4.1492 6.7324 7.307 9.2743 1.0943.8808 4.0308 2.882 5.331 3.6329l.4718.2723 143.2832.01s-.0416-46.7993-.0925-46.8071c-.0509-.008-.7597-.0895-1.5746-.1814-11.309-1.2747-22.044-2.8167-28.8292-4.1408-10.652-2.0787-17.7476-4.7275-22.7924-8.5086-4.519-3.387-6.9013-6.8831-10.9756-16.108-3.5508-8.0397-5.6763-11.6656-8.6392-14.7376-1.9198-1.9905-3.8596-3.4055-6.918-5.0468-2.0409-1.0952-3.9732-1.9577-9.234-4.1206-2.323-.955-5.1682-2.1998-6.3226-2.7663-4.4091-2.1633-6.8495-4.193-8.1613-6.7882l-.5617-1.111z" style="opacity:.95;fill:#64305f;fill-opacity:1;stroke-width:1.2;stroke-linecap:round"/>
      <path d="m40.218 232.0644.062 34.909 1.111.9767c7.2242 6.3497 13.5203 10.1503 19.7927 11.9476 3.1484.9021 6.107 1.2427 9.9012 1.1405 3.7902-.1022 6.4895-.4076 12.717-1.4387 6.8898-1.1408 10.2446-1.5154 13.5811-1.5167 4.0557-.002 6.6572.5845 9.0041 2.0288 3.3686 2.073 5.7963 5.9344 8.1008 12.8855.4953 1.494 1.16 3.6608 1.477 4.8152.3169 1.1544 1.0186 3.71 1.5595 5.6793 2.7342 9.9535 4.4457 14.1083 7.4693 18.1353 3.1513 4.197 7.2122 7.3157 15.2942 11.745 7.2418 3.969 10.8872 6.3293 13.762 8.9111.1494.1343 111.495.1603 111.495.1603v-25.9261l-.5251-.016c-.2886-.009-2.1634-.2014-4.1667-.4284-19.0745-2.1615-33.2943-4.5398-41.9488-7.0166-4.1252-1.1806-7.2456-2.36-10.463-3.9543-6.0022-2.9742-9.9159-6.3315-13.1046-11.2417-1.6773-2.5829-3.3731-5.967-6.0937-12.1605-4.1897-9.5378-7.2125-14.273-11.4003-17.8578-3.2197-2.756-7.3184-4.998-14.5283-7.9473-9.3373-3.8196-12.3382-5.2726-15.196-7.3572-1.13-.8243-2.919-2.6711-3.6328-3.7502-1.2086-1.8268-1.8717-4.1893-1.9932-7.1034-.0687-1.6478.0668-4.2211.278-5.2782l.0682-.3396z" style="opacity:.95;fill:#3d2b4b;fill-opacity:1;stroke-width:1.2;stroke-linecap:round"/>
      <path d="M179.0024 341.5483c-3.4337-4.3095-7.946-8.6854-11.9528-11.5914-2.5348-1.8384-4.896-3.2662-10.9885-6.6449-4.6812-2.596-6.7988-3.8429-8.8896-5.2346-5.059-3.3676-8.7483-7.066-11.3663-11.3945-2.4472-4.046-4.5445-9.8135-7.1552-19.676-3.6753-13.8844-6.198-19.7222-10.131-23.4452-2.9653-2.807-6.5999-3.9644-12.4484-3.9644-3.708 0-7.0369.3647-14.6444 1.6044-8.7378 1.424-12.0454 1.781-16.4828 1.7797-3.4442-.0009-5.0482-.1527-7.8782-.7452-8.222-1.7213-16.431-6.5184-26.2294-15.3277l-1.0186-.9158v-13.9285h42.9664c23.6315 0 42.9663.0417 42.9662.0926 0 .051-.1915.9816-.4254 2.068-1.0494 4.8742-1.5473 8.726-1.548 11.9764-.001 5.1873 1.1507 8.4219 4.0609 11.405 2.9925 3.0675 7.1547 5.3742 16.6282 9.2154 8.8607 3.5927 12.9378 5.5565 16.5355 7.9648 5.1065 3.4184 8.792 7.8227 12.4986 14.9368 1.146 2.1995 1.9807 3.9926 4.3104 9.26 2.824 6.3846 5.1724 10.9082 7.0508 13.5813 4.7118 6.7052 11.5586 11.396 21.7599 14.908 8.9456 3.0798 22.4416 5.6722 43.522 8.3603 1.2457.1589 9.2486 1.0751 13.7357 1.5726l1.2655.1403v4.8977h-85.4283z" style="fill:#2d273e;fill-opacity:1;stroke-width:.466646"/>
    </g>
    <rect width="190" height="100" x="10" y="98.5" ry="3" style="opacity:.95;mix-blend-mode:normal;fill:#222323;fill-opacity:1;stroke-width:1.11057;stroke-linecap:round;filter:url(#b)"/>
    <g transform="translate(-.0285 -1.775)">
      <rect width="190" height="100" x="10.0285" y="100.275" ry="3" style="opacity:.95;fill:#222323;fill-opacity:1;stroke-width:1.11057;stroke-linecap:round"/>
      <path d="M62.3198 151.9457q1.34 1.8504 1.0848 3.7008-.1915 1.8505-1.021 3.5095-.8295 1.659-1.8504 3.0627-1.0209 1.4038-1.4037 2.297-1.4038-.8932-2.5523-2.1056-.9572-1.0847-1.7867-2.5523-.7656-1.5313-.7656-3.5732v-6.1255q-.4467 0-.7657-.064-.319-.1275-.5743-.2552-.2552-.1277-.5105-.319.5105 0 .8933-.2553.319-.2553.6381-.8295.319-.638.319-1.9142v-2.2333q0-1.7228-.5742-2.4885-.5105-.7657-1.4676-1.4676l-4.5303-3.3818q-.3829.319-.7657.8296-.319.5104-.3829 1.5952v5.6788q.9572-.064 1.4676.319.2553.1913.3829.4467-.5743 0-.9571.2552-.319.2553-.6381.8933-.2553.5743-.2553 1.7866v5.8065q0 1.7228.5105 2.5523.5743.7657 1.5314 1.4676l.0638.064.5105.319q1.2761.8934 2.1694 0 .2552-.2552.3829-.5104.1914-.2552.319-.3829.1276-.1912.1914-.319-.1276.8933-.8933 1.8504-.7657.9571-1.659 1.9143-.8933.8933-1.659 1.7228-.7657.7656-.8933 1.2761l-2.4885-1.7866q-.8295-.6381-1.5314-1.2761-.638-.6381-1.1485-1.4038l-.1276.1914q-.7019.7657-1.4038 1.2124-.638.4466-1.2123.7019-.7019.2552-1.2762.4466 1.2124-.5105 1.7867-1.2761.638-.7657.8933-1.7228.2552-.9572.2552-2.0419v-7.4655q-.7019 0-1.34-.2552-.2552-.1277-.5104-.319.5104 0 .8933-.319.319-.2553.638-.8296.319-.638.319-1.8504v-20.865q0-.2553-.1913-.4467-.1914-.1913-.4467-.1277h-1.0847q2.3609-1.021 4.0837-2.2333 1.7866-1.2123 2.8075-2.3608 1.0847-1.2124 1.4676-2.2333.3828-1.021 0-1.659.3828.319.4466.9571.0638.5105-.2552 1.4676-.2552.8933-1.1485 2.3609v15.8242l.8295-.638q.2552-.1915.8295-.7657.638-.5743 1.2761-1.2124.638-.638 1.1485-1.2123.5105-.5743.5743-.8933l4.977 3.7008q.8933.638 1.5314 1.2762.638.5742 1.1485 1.34l.1276-.1915q.638-.702 1.34-1.1486.7019-.5104 1.2761-.7657.702-.2552 1.2762-.3828-1.7866.7657-2.2971 2.0418-.5105 1.2762-.638 2.9351v3.8923q.7656.064 1.3399.319.2552.1278.5104.3191-.5742 0-.957.2553-.3191.2551-.6381.8933-.2553.638-.2553 1.8504v3.8922q0 2.8075.4467 4.1475.5104 1.2762.8933 1.7866.8295-.8933 1.34-1.978.4466-.8933.5104-2.1057.1276-1.2123-.5743-2.616zm22.524-6.7636q.4467 0 .7657.1275.319.064.5743.1915.2552.1277.5105.2552-.5743.064-.9572.319-.319.319-.638.8934-.2553.5742-.2553 1.7866v4.7217q0 .7657.5743 1.021.2552.1276.638.1276l-7.7206 5.8065q-.2553.1913-.8933.7657l-1.2124 1.2123q-.638.6381-1.1485 1.2762-.5105.5743-.5105.8295l-5.0408-3.7007q-1.7228-1.2124-2.6799-2.6162l-.1276.1913q-.7019.7657-1.4038 1.2123-.638.4467-1.2123.7019-.702.2553-1.2762.4467 1.2124-.5743 1.7866-1.34.6381-.7657.8933-1.659.2553-.957.2553-2.0418v-5.6151q-.4467 0-.7657-.064-.319-.1277-.5743-.2552-.2552-.1275-.5104-.319.5104 0 .8933-.2553.319-.2552.638-.8295.319-.638.319-1.9142v-2.9351q0-.4467-.1913-.6381-.1915-.2553-.3829-.3828-.2552-.1276-.5742-.1276l1.1485-.9571 6.5084-4.8494q.2552-.1914.8933-.7656.638-.5743 1.2761-1.2124.638-.638 1.1485-1.2123.5105-.5743.5105-.8933l4.977 3.7008q.8933.638 1.5314 1.2762.638.5742 1.1485 1.34l.1276-.1915q.6381-.702 1.34-1.1486.7019-.5104 1.2761-.7657.702-.2552 1.2762-.3828-1.1486.5104-1.7866 1.2762-.5743.7656-.8295 1.7228-.2553.8933-.319 1.978v2.2332q0 .064.0637.064zm-5.6788-.8295q0-1.7866-.5105-2.5523-.5105-.7657-1.4676-1.4676l-4.5941-3.3818q-.3829.319-.7657.8933-.3828.5743-.3828 1.9143v5.3598q.7656.064 1.34.319.2551.1278.5104.319-.5743 0-.9571.2553-.319.2552-.6381.8933-.2552.638-.2552 1.8504v3.8923q0 1.7866.5104 2.5523.5743.7657 1.5314 1.4676l4.5303 3.3818q.3829-.319.702-.8295.3828-.5105.4466-1.659v-7.4655q-.8295 0-1.34-.319-.2552-.1276-.5105-.3191.5105 0 .8933-.2552.319-.2553.6381-.8295.319-.6381.319-1.9142zm29.9895.8295q.7657.064 1.34.319.2552.1276.5104.319-.5742 0-.957.2553-.3191.2552-.6381.8933-.2553.638-.2553 1.8504v4.658q0 .8295.5743 1.0847.2552.1277.638.1277l-1.2123.8933-6.5083 4.9132q-.2552.1913-.8934.7657-.5742.5104-1.2123 1.1485-.638.6381-1.1485 1.2762-.5105.5742-.5105.8295l-3.1265-2.2333v8.614q0 .319.1914.5105.1915.1914.4467.1275h1.0847q-2.3609 1.021-4.1475 2.2332-1.7228 1.2124-2.8075 2.361-1.021 1.2123-1.4038 2.2332-.3828 1.021 0 1.659-.3828-.319-.4466-.9571-.0638-.5105.1914-1.4676.2552-.8933 1.2123-2.3609v-15.888q-1.1485.8295-2.0418 1.1485-.5105.1913-.8933.2552 1.9142-.8933 2.3609-2.297.5104-1.4039.5742-3.1904v-5.1684q-.7018 0-1.34-.2553-.2551-.1275-.5104-.319.5105 0 .8933-.319.319-.2553.6381-.8296.319-.638.319-1.8504v-9.5711q0-.7019-.638-.5743l-1.1486-.3828q1.021-.1275 2.5523-1.021 1.5952-.8932 2.999-2.1056 1.4675-1.2761 2.3609-2.616.8933-1.34.5104-2.361.2552.2553.319.8933 0 .5105-.2552 1.4038-.1914.8933-1.0209 2.361v4.6578l.8295-.638q.2552-.1915.8933-.7657.638-.5743 1.2762-1.2124.638-.638 1.1485-1.2123.5105-.5743.5105-.8933l4.977 3.7008q.8933.638 1.5313 1.2762.638.5742 1.1486 1.34l.1277-.1915q.638-.7019 1.34-1.1486.7018-.5104 1.276-.7656.702-.2553 1.2762-.3829-1.1485.5105-1.7228 1.2123-.5742.702-.8933 1.5952-.2552.8295-.319 1.8505v2.0418zm-5.6789-.5105v-.319q0-1.7866-.5104-2.5523-.5105-.7657-1.4676-1.4676l-4.5941-3.3818q-.3829.319-.7657.8295-.319.5105-.3828 1.7866v5.4875q.957-.064 1.4675.319.2552.1915.3829.4467-.5743 0-.9572.2552-.319.2552-.638.8933-.2552.5743-.2552 1.7866v4.0199q0 1.7228.5104 2.4885.5743.7657 1.5314 1.4676l.5742.3828 3.9561 2.9351q.3829-.319.7657-.8295.3828-.5742.3828-1.9142v-7.2102q-.7018 0-1.3399-.2552-.2552-.1278-.5105-.319.5105 0 .8933-.3191.319-.2553.6381-.8295.319-.6381.319-1.8504zm29.7344-8.933q.2552.4467.2552.8933 0 .3829-.1914.9571-.1915.5105-.8934 1.0847l-4.594 3.637-7.657-5.4236q-.3828.319-.7657.8933-.3828.5743-.3828 1.9142v5.4237h.319q2.2333 0 3.637 1.659 1.4038 1.5952 1.34 3.8284l-.1277 3.5733-.1915-1.021q-.319-1.0847-1.2761-1.7228-.8933-.638-1.978-.638h-1.7229v20.546q0 .638.702.638l1.0846-.064q-2.4246 1.021-4.1475 2.2333-1.7227 1.2124-2.8075 2.3609-1.0847 1.2124-1.4675 2.2333-.319 1.0209.064 1.659-.4467-.319-.5105-.9572-.064-.5104.1913-1.4037.2552-.8933 1.2123-2.3609v-25.5868q-.7019 0-1.34-.2552-.2552-.1277-.5104-.319.5105 0 .8933-.2553.319-.2553.5743-.7657.319-.5743.3828-1.659v-3.3818q0-.4466-.1915-.638-.1914-.2553-.3828-.3829-.2553-.1277-.5743-.1277l1.1485-.9571 6.5084-4.8494q.5105-.3828 1.0847-.9571.6381-.638 1.1486-1.2123.5743-.5743.957-1.021.383-.4466.4468-.5104.7018-1.021.5742-1.659-.064-.2553-.2552-.5105.7019.5105.7019 1.1485 0 .6381-.1915 1.1486l7.4654 5.3598q.702-.3828 1.1486-1.021.5104-.638.319-1.5313zm12.57 23.8002q3.701-1.8504 5.1685-3.5732 1.4676-1.7866 1.7228-3.1266.2552-1.5952-.5743-2.9351 1.2124 1.34 1.021 3.1265-.1913 1.1486-.8933 2.2333-.6381 1.0847-1.5314 2.0418-.8933.9572-1.8504 1.7866-.9572.7657-1.5952 1.2124-.5105.4466-1.0848.8933-.5104.3828-1.0209.8933-.7657.7019-1.4037 1.4676-.6382.7019-.6382 1.0209l-5.0407-3.637q-.8295-.6381-1.5314-1.2762-.638-.638-1.1485-1.4037l-.1277.1914q-.7019.7657-1.4038 1.2124-.638.4466-1.2123.7019-.702.2552-1.2762.4466 1.2124-.5104 1.7866-1.2761.638-.7657.8933-1.7228.2553-.9571.2553-2.0419v-5.4874q-.4467 0-.7658-.064-.319-.1277-.5742-.2552-.2552-.1278-.5105-.319.5105 0 .8933-.2553.319-.2553.6381-.8295.319-.6381.319-1.9143v-3.1903q0-.4467-.1914-.6381-.1915-.2552-.3829-.3828-.2552-.1277-.5742-.1277l1.1485-.9572 6.5084-4.8493q.2552-.1915.8933-.7657.638-.5743 1.2762-1.2123.638-.6381 1.1485-1.2124.5104-.5743.5104-.8933l4.977 3.637q.8933.638 1.5314 1.2762.638.638 1.1485 1.4037.5105.9572.319 2.1057-.1277 1.0847-.957 1.7866l-11.6768 8.295v1.8504q0 1.7228.5104 2.4885.5743.7657 1.5314 1.4676zm-5.8064-9.3797q2.1695-1.4676 3.8285-2.7437 1.4675-1.0848 2.6799-2.2333 1.2123-1.2123 1.2123-1.9142-.1914-1.2124-.7019-1.7866-.5104-.6381-1.2761-1.2124l-4.5942-3.3818q-.3828.319-.7656.8933-.383.5743-.383 1.9142v5.6151q.7658.064 1.34.319.2553.1278.5105.3191-.5742 0-.9571.2552-.319.2553-.638.8933-.2553.6381-.2553 1.8504zm30.819-14.1015q1.1486.702 1.4038 1.7866.2553 1.0848-.064 2.2971-.319 1.2123-1.1485 2.4247-.7657 1.2123-1.7866 2.1694-1.021.9572-2.1695 1.5952-1.0847.5743-2.0418.5743 1.2761-.5105 2.1694-1.2761.7657-.702 1.2124-1.659.4466-1.021-.064-2.4247-.319-.702-.8933-1.2124-.5743-.5742-1.0848-1.0209l-4.0198-2.3609q-.3829.319-.7657.8933-.3829.5743-.3829 1.9143v5.296q.9571-.064 1.4676.319.2552.1915.3829.4467-.5743 0-.9572.2552-.319.2552-.638.8933-.2553.5743-.2553 1.7866v5.8065q0 1.7228.5105 2.5523.5743.7657 1.5314 1.4676l.064.064.5105.319q1.2761.8933 2.1694 0 .2553-.2552.3828-.5104.1913-.2552.319-.3829.1278-.1914.1913-.319-.1275.8933-.8933 1.8504-.7657.9571-1.659 1.9143-.8933.8933-1.659 1.7227-.7656.7657-.8933 1.2762l-2.4884-1.7866q-.8296-.638-1.5314-1.2762-.6381-.638-1.1486-1.4038l-.1277.1913q-.7019.7657-1.4037 1.2124-.6381.4466-1.2124.7018-.7019.2553-1.2761.4467 1.2123-.5105 1.7866-1.2762.638-.7657.8933-1.7227.2552-.9572.2552-2.042v-7.4654q-.7019 0-1.34-.2552-.2552-.1277-.5104-.319.5105 0 .8933-.319.319-.2553.638-.8296.3191-.638.3191-1.8504v-9.6351q0-.638-.638-.638l-1.0848.064q2.3609-1.021 4.0837-2.2334 1.7866-1.2123 2.8075-2.3609 1.0847-1.2123 1.4676-2.2332.3828-1.021 0-1.659.3828.319.4466.9571.064.5105-.2552 1.4676-.2552.8933-1.1485 2.297v4.658l.8295-.638q.2552-.1915.8933-.7657.638-.5743 1.2761-1.2124.6381-.638 1.1486-1.2124.5104-.5742.5104-.8933l4.977 3.5733z" aria-label="hopfer" style="font-size:40.3696px;line-height:.9;font-family:Cambridge;-inkscape-font-specification:Cambridge;text-align:center;text-anchor:middle;fill:#f0f6f0;stroke-width:27.1307;stroke-linecap:round"/>
    </g>
  </g>
</svg>
