<?xml version="1.0" encoding="UTF-8" standalone="no"?>
<!-- Created with Inkscape (http://www.inkscape.org/) -->

<svg
   width="210mm"
   height="106.63464mm"
   viewBox="0 0 210 106.63464"
   version="1.1"
   id="svg1"
   inkscape:version="1.4 (e7c3feb100, 2024-10-09)"
   sodipodi:docname="thumbnail.svg"
   xmlns:inkscape="http://www.inkscape.org/namespaces/inkscape"
   xmlns:sodipodi="http://sodipodi.sourceforge.net/DTD/sodipodi-0.dtd"
   xmlns="http://www.w3.org/2000/svg"
   xmlns:svg="http://www.w3.org/2000/svg">
  <sodipodi:namedview
     id="namedview1"
     pagecolor="#505050"
     bordercolor="#eeeeee"
     borderopacity="1"
     inkscape:showpageshadow="0"
     inkscape:pageopacity="0"
     inkscape:pagecheckerboard="0"
     inkscape:deskcolor="#505050"
     inkscape:document-units="mm"
     inkscape:zoom="0.99654638"
     inkscape:cx="393.86024"
     inkscape:cy="324.62112"
     inkscape:window-width="1920"
     inkscape:window-height="1013"
     inkscape:window-x="0"
     inkscape:window-y="39"
     inkscape:window-maximized="1"
     inkscape:current-layer="layer1" />
  <defs
     id="defs1" />
  <g
     inkscape:label="Layer 1"
     inkscape:groupmode="layer"
     id="layer1"
     transform="translate(0,-95.182678)">
    <rect
       style="opacity:1;fill:#222323;fill-opacity:1;stroke-width:0.929608;stroke-linecap:round"
       id="rect1"
       width="161.91629"
       height="82.218506"
       x="24.041853"
       y="107.39075"
       ry="2.5845699" />
    <path
       d="m 84.180035,150.18082 q 0.65365,0.90266 0.529145,1.80531 -0.09338,0.90267 -0.498018,1.71195 -0.404641,0.80928 -0.90266,1.49405 -0.498018,0.68478 -0.684775,1.12055 -0.684776,-0.43577 -1.245047,-1.02716 -0.466892,-0.52915 -0.871533,-1.24506 -0.373514,-0.74702 -0.373514,-1.74306 v -2.98811 q -0.217883,0 -0.373513,-0.0312 -0.155632,-0.0622 -0.280137,-0.12451 -0.124504,-0.0623 -0.249009,-0.15563 0.249009,0 0.435767,-0.12451 0.15563,-0.12451 0.311262,-0.40463 0.15563,-0.31127 0.15563,-0.93379 v -1.08941 q 0,-0.84042 -0.280135,-1.21392 -0.24901,-0.37352 -0.715902,-0.71591 l -2.209959,-1.64969 q -0.186756,0.15563 -0.373513,0.40465 -0.155631,0.249 -0.186758,0.77816 v 2.77022 q 0.466893,-0.0312 0.715903,0.15563 0.124505,0.0933 0.186756,0.21788 -0.280135,0 -0.466892,0.12451 -0.15563,0.1245 -0.311262,0.43577 -0.124505,0.28013 -0.124505,0.87153 v 2.83248 q 0,0.8404 0.24901,1.24504 0.280136,0.37352 0.747028,0.71591 l 0.03113,0.0312 0.249009,0.15563 q 0.622524,0.43577 1.05829,0 0.124505,-0.1245 0.186758,-0.24901 0.09338,-0.1245 0.15563,-0.18675 0.06225,-0.0933 0.09338,-0.15563 -0.06225,0.43576 -0.435767,0.90266 -0.373514,0.46689 -0.80928,0.93379 -0.435767,0.43577 -0.80928,0.8404 -0.373515,0.37351 -0.435766,0.62253 l -1.213922,-0.87153 q -0.40464,-0.31128 -0.747028,-0.62253 -0.311262,-0.31126 -0.560271,-0.68478 l -0.06225,0.0934 q -0.342388,0.37351 -0.684775,0.5914 -0.311262,0.21788 -0.591398,0.34239 -0.342388,0.12451 -0.622523,0.21788 0.591397,-0.24902 0.871533,-0.62252 0.311261,-0.37352 0.435766,-0.84041 0.124505,-0.4669 0.124505,-0.99604 0,-0.52914 0,-1.08942 v -2.55234 q -0.342388,0 -0.653649,-0.1245 -0.124505,-0.0623 -0.249011,-0.15564 0.249011,0 0.435767,-0.15563 0.155631,-0.1245 0.311261,-0.40464 0.155632,-0.31126 0.155632,-0.90265 v -10.17827 q 0,-0.1245 -0.09338,-0.21788 -0.09337,-0.0933 -0.217883,-0.0623 h -0.529145 q 1.151668,-0.49801 1.992075,-1.08942 0.871533,-0.59139 1.369552,-1.15166 0.529145,-0.5914 0.715901,-1.08942 0.186757,-0.49801 0,-0.80928 0.186757,0.15563 0.217883,0.4669 0.03113,0.249 -0.124505,0.7159 -0.124504,0.43577 -0.560271,1.15167 v 7.71929 l 0.404641,-0.31126 q 0.124505,-0.0934 0.404641,-0.37351 0.31126,-0.28014 0.622522,-0.59141 0.311262,-0.31126 0.560272,-0.5914 0.249009,-0.28013 0.280135,-0.43576 l 2.427841,1.80532 q 0.435766,0.31125 0.747028,0.62253 0.311262,0.28013 0.560271,0.65364 l 0.06225,-0.0934 q 0.311262,-0.34239 0.65365,-0.56026 0.342387,-0.24902 0.622524,-0.37352 0.342387,-0.12451 0.622523,-0.18676 -0.871532,0.37351 -1.120543,0.99604 -0.249009,0.62252 -0.311261,1.43179 v 1.89871 q 0.373514,0.0312 0.65365,0.15563 0.124505,0.0623 0.249009,0.15563 -0.280136,0 -0.466892,0.12451 -0.155632,0.12449 -0.311262,0.43577 -0.124505,0.31125 -0.124505,0.90265 v 1.89869 q 0,1.36955 0.217883,2.02321 0.24901,0.62252 0.435767,0.87152 0.404639,-0.43576 0.653649,-0.9649 0.217883,-0.43577 0.24901,-1.02716 0.06225,-0.5914 -0.280136,-1.27618 z m 10.987511,-3.29937 q 0.217883,0 0.373514,0.0622 0.155631,0.0312 0.280135,0.0934 0.124504,0.0623 0.249009,0.12449 -0.280136,0.0312 -0.466892,0.15564 -0.155631,0.15563 -0.311262,0.43577 -0.124504,0.28012 -0.124504,0.87154 v 2.30332 q 0,0.37352 0.280135,0.49802 0.124504,0.0623 0.311262,0.0623 l -3.766267,2.83247 q -0.124504,0.0933 -0.435766,0.37352 -0.280136,0.28013 -0.591397,0.59139 -0.311262,0.31128 -0.560271,0.62253 -0.24901,0.28014 -0.24901,0.40465 l -2.458968,-1.80528 q -0.840406,-0.5914 -1.307298,-1.27618 l -0.06226,0.0933 q -0.342387,0.37352 -0.684775,0.5914 -0.311262,0.21788 -0.591397,0.34238 -0.342388,0.12451 -0.622523,0.21788 0.591397,-0.28013 0.871533,-0.65364 0.311262,-0.37352 0.435766,-0.80928 0.124504,-0.46689 0.124504,-0.99604 0,-0.52914 0,-1.08942 v -1.64968 q -0.217883,0 -0.373514,-0.0312 -0.155631,-0.0623 -0.280135,-0.12451 -0.124505,-0.0622 -0.24901,-0.15563 0.24901,0 0.435767,-0.1245 0.15563,-0.12451 0.311262,-0.40464 0.15563,-0.31126 0.15563,-0.93379 v -1.4318 q 0,-0.21789 -0.09337,-0.31127 -0.09338,-0.1245 -0.186757,-0.18674 -0.124505,-0.0622 -0.280135,-0.0622 l 0.56027,-0.46691 3.17487,-2.36558 q 0.124505,-0.0934 0.435766,-0.37351 0.311262,-0.28014 0.622524,-0.5914 0.311262,-0.31127 0.560271,-0.5914 0.249008,-0.28014 0.249008,-0.43577 l 2.427842,1.80532 q 0.435766,0.31126 0.747028,0.62253 0.311262,0.28013 0.560272,0.65365 l 0.06225,-0.0934 q 0.311262,-0.34238 0.65365,-0.56026 0.342389,-0.24902 0.622523,-0.37352 0.342388,-0.12451 0.622524,-0.18676 -0.560271,0.24901 -0.871533,0.62253 -0.280135,0.37351 -0.40464,0.84041 -0.124505,0.43576 -0.155631,0.9649 0,0.52916 0,1.08942 0,0.0312 0.03112,0.0312 z m -2.770229,-0.40465 q 0,-0.87153 -0.249011,-1.24504 -0.249008,-0.37352 -0.715901,-0.7159 l -2.241085,-1.64969 q -0.186756,0.15563 -0.373513,0.43576 -0.186757,0.28014 -0.186757,0.93379 v 2.6146 q 0.373514,0.0312 0.653649,0.15563 0.124505,0.0623 0.24901,0.15563 -0.280136,0 -0.466893,0.1245 -0.155631,0.12451 -0.311262,0.43577 -0.124504,0.31126 -0.124504,0.90267 v 1.89869 q 0,0.87153 0.249008,1.24505 0.280137,0.3735 0.747029,0.7159 l 2.209958,1.64968 q 0.186757,-0.15562 0.342388,-0.40464 0.186756,-0.24901 0.217884,-0.80928 v -3.64176 q -0.404641,0 -0.65365,-0.15563 -0.124505,-0.0622 -0.24901,-0.15564 0.24901,0 0.435766,-0.1245 0.155632,-0.1245 0.311262,-0.40464 0.155632,-0.31126 0.155632,-0.93378 z m 14.629313,0.40465 q 0.37352,0.0312 0.65365,0.15563 0.12451,0.0622 0.249,0.15562 -0.28012,0 -0.46688,0.12451 -0.15563,0.1245 -0.31126,0.43577 -0.12451,0.31126 -0.12451,0.90266 v 2.27221 q 0,0.40464 0.28014,0.52914 0.12451,0.0623 0.31126,0.0623 l -0.5914,0.43576 -3.17487,2.39672 q -0.12449,0.0933 -0.43577,0.37351 -0.28014,0.249 -0.59139,0.56027 -0.31126,0.31127 -0.56027,0.62252 -0.24901,0.28014 -0.24901,0.40465 l -1.52518,-1.08942 v 4.20204 q 0,0.15562 0.0934,0.249 0.0934,0.0934 0.21789,0.0622 h 0.52914 q -1.15166,0.49803 -2.023198,1.08942 -0.840407,0.59139 -1.369552,1.15166 -0.498019,0.59141 -0.684776,1.08942 -0.186757,0.49802 0,0.80928 -0.186757,-0.15563 -0.217883,-0.46688 -0.03112,-0.24902 0.09338,-0.71591 0.124505,-0.43577 0.591398,-1.15167 v -7.75042 q -0.560272,0.40465 -0.996038,0.56028 -0.249009,0.0933 -0.435766,0.12449 0.933785,-0.43576 1.151668,-1.12054 0.249009,-0.68478 0.280136,-1.5563 v -2.52122 q -0.342389,0 -0.65365,-0.12451 -0.124505,-0.0622 -0.249009,-0.15563 0.249009,0 0.435766,-0.15563 0.155632,-0.12451 0.311262,-0.40464 0.155631,-0.31126 0.155631,-0.90265 v -2.49011 -2.17883 q 0,-0.34238 -0.311261,-0.28014 l -0.560272,-0.18674 q 0.498019,-0.0622 1.245047,-0.49803 0.778154,-0.43576 1.46293,-1.02715 0.715897,-0.62254 1.151667,-1.27618 0.43577,-0.65365 0.24901,-1.15167 0.1245,0.12451 0.15562,0.43576 0,0.24902 -0.12449,0.68478 -0.0934,0.43577 -0.49802,1.15168 v 2.2722 l 0.40463,-0.31126 q 0.12451,-0.0934 0.43577,-0.37351 0.31126,-0.28014 0.62253,-0.5914 0.31126,-0.31126 0.56027,-0.5914 0.24901,-0.28013 0.24901,-0.43577 l 2.42784,1.80533 q 0.43577,0.31125 0.74703,0.62252 0.31125,0.28013 0.56027,0.65365 l 0.0623,-0.0934 q 0.31126,-0.34238 0.65365,-0.56026 0.34239,-0.24902 0.62252,-0.37351 0.34239,-0.12451 0.62253,-0.18677 -0.56028,0.24901 -0.84041,0.5914 -0.28014,0.34239 -0.43577,0.77816 -0.12451,0.40463 -0.15563,0.90266 0,0.46689 0,0.99603 z m -2.77023,-0.24902 v -0.15563 q 0,-0.87153 -0.24901,-1.24504 -0.249,-0.37352 -0.7159,-0.7159 l -2.24108,-1.64969 q -0.18676,0.15563 -0.37352,0.40464 -0.15563,0.249 -0.18675,0.87153 v 2.67685 q 0.46689,-0.0312 0.7159,0.15564 0.1245,0.0934 0.18675,0.21787 -0.28014,0 -0.46689,0.12451 -0.15563,0.1245 -0.31125,0.43577 -0.12451,0.28013 -0.12451,0.87154 v 1.96094 q 0,0.8404 0.249,1.21393 0.28014,0.37351 0.74704,0.71589 l 0.28012,0.18676 1.92983,1.4318 q 0.18676,-0.15562 0.37351,-0.40464 0.18676,-0.28014 0.18676,-0.93379 v -3.51725 q -0.34239,0 -0.65364,-0.1245 -0.12451,-0.0623 -0.24902,-0.15564 0.24902,0 0.43577,-0.15563 0.15563,-0.1245 0.31126,-0.40464 0.15563,-0.31126 0.15563,-0.90265 z m 14.50482,-4.35766 q 0.1245,0.21789 0.1245,0.43576 0,0.18677 -0.0934,0.46691 -0.0934,0.249 -0.43577,0.52914 l -2.24108,1.77419 -3.73514,-2.64573 q -0.18676,0.15563 -0.37351,0.43577 -0.18676,0.28014 -0.18676,0.93378 v 2.64573 h 0.15563 q 1.08941,0 1.77419,0.80928 0.68478,0.77815 0.65365,1.86756 l -0.0623,1.74307 -0.0934,-0.49802 q -0.15562,-0.52914 -0.62252,-0.8404 -0.43577,-0.31127 -0.96491,-0.31127 h -0.84041 v 8.87097 1.15166 q 0,0.31127 0.34239,0.31127 l 0.52914,-0.0312 q -1.18279,0.49801 -2.0232,1.08942 -0.8404,0.59139 -1.36955,1.15166 -0.52915,0.5914 -0.71589,1.08941 -0.15564,0.49802 0.0312,0.80929 -0.21788,-0.15564 -0.24901,-0.4669 -0.0312,-0.249 0.0933,-0.68477 0.12451,-0.43576 0.59139,-1.15166 v -3.29939 -8.03054 -1.15167 q -0.34238,0 -0.65364,-0.12451 -0.12451,-0.0623 -0.24901,-0.15563 0.24901,0 0.43577,-0.12451 0.15563,-0.12451 0.28012,-0.37351 0.15564,-0.28013 0.18676,-0.80927 v -1.64969 q 0,-0.21789 -0.0934,-0.31127 -0.0934,-0.12451 -0.18677,-0.18675 -0.1245,-0.0623 -0.28013,-0.0623 l 0.56027,-0.46689 3.17488,-2.36559 q 0.249,-0.18675 0.52914,-0.46689 0.31126,-0.31126 0.56028,-0.59139 0.28013,-0.28014 0.46688,-0.49803 0.18676,-0.21787 0.21789,-0.24901 0.34238,-0.49802 0.28013,-0.80927 -0.0312,-0.12451 -0.1245,-0.24901 0.34238,0.24901 0.34238,0.56026 0,0.31127 -0.0934,0.56028 l 3.64175,2.61459 q 0.3424,-0.18675 0.56028,-0.49802 0.249,-0.31126 0.15563,-0.74702 z m 6.13186,11.61006 q 1.80531,-0.90265 2.52121,-1.74307 0.71591,-0.87153 0.84042,-1.52518 0.1245,-0.77815 -0.28014,-1.4318 0.5914,0.65365 0.49802,1.52518 -0.0933,0.56027 -0.43576,1.08943 -0.31126,0.52914 -0.74703,0.99602 -0.43577,0.46691 -0.90266,0.87154 -0.4669,0.37351 -0.77816,0.59139 -0.24901,0.21789 -0.52915,0.43577 -0.249,0.18676 -0.49801,0.43576 -0.37351,0.3424 -0.68477,0.71591 -0.31128,0.34239 -0.31128,0.49802 l -2.45895,-1.77419 q -0.40465,-0.31127 -0.74703,-0.62252 -0.31127,-0.31127 -0.56027,-0.68477 l -0.0623,0.0934 q -0.34238,0.37352 -0.68478,0.59141 -0.31125,0.21787 -0.59139,0.34238 -0.34239,0.12451 -0.62253,0.21789 0.59141,-0.24902 0.87154,-0.62253 0.31126,-0.37351 0.43576,-0.8404 0.12451,-0.46689 0.12451,-0.99604 0,-0.52914 0,-1.08941 v -1.58744 q -0.21789,0 -0.37352,-0.0312 -0.15562,-0.0623 -0.28013,-0.12451 -0.12451,-0.0623 -0.24901,-0.15563 0.24901,0 0.43577,-0.12451 0.15563,-0.12451 0.31126,-0.40464 0.15563,-0.31126 0.15563,-0.93379 v -1.5563 q 0,-0.21789 -0.0934,-0.31127 -0.0934,-0.12451 -0.18676,-0.18675 -0.1245,-0.0623 -0.28013,-0.0623 l 0.56027,-0.46689 3.17487,-2.36559 q 0.12451,-0.0934 0.43576,-0.37351 0.31127,-0.28014 0.62254,-0.59139 0.31125,-0.31127 0.56026,-0.59141 0.24901,-0.28013 0.24901,-0.43576 l 2.42784,1.77419 q 0.43577,0.31126 0.74703,0.62253 0.31126,0.31125 0.56027,0.68477 0.24901,0.46689 0.15562,1.02716 -0.0623,0.52915 -0.46688,0.87153 l -5.6961,4.0464 v 0.90267 q 0,0.8404 0.24902,1.21392 0.28014,0.37351 0.74702,0.7159 z m -2.83249,-4.57554 q 1.0583,-0.71591 1.86758,-1.33843 0.7159,-0.52915 1.30729,-1.08941 0.59141,-0.59139 0.59141,-0.93379 -0.0934,-0.59139 -0.34239,-0.87153 -0.24902,-0.31127 -0.62252,-0.5914 l -2.24109,-1.64969 q -0.18675,0.15563 -0.37352,0.43577 -0.18676,0.28014 -0.18676,0.93378 v 2.73911 q 0.37353,0.0312 0.65366,0.15563 0.1245,0.0623 0.24901,0.15563 -0.28013,0 -0.4669,0.12451 -0.15563,0.1245 -0.31126,0.43577 -0.12451,0.31125 -0.12451,0.90265 z m 15.03397,-6.87889 q 0.56028,0.34239 0.68477,0.87153 0.12451,0.52916 -0.0312,1.12055 -0.15563,0.59139 -0.56028,1.18279 -0.37351,0.5914 -0.87153,1.05829 -0.49802,0.4669 -1.05829,0.77815 -0.52914,0.28014 -0.99603,0.28014 0.62251,-0.24901 1.05828,-0.62252 0.37351,-0.34239 0.5914,-0.80927 0.21788,-0.49803 -0.0312,-1.18281 -0.15563,-0.34239 -0.43576,-0.59139 -0.28014,-0.28014 -0.52915,-0.49802 l -1.96094,-1.15167 q -0.18677,0.15563 -0.37353,0.43576 -0.18675,0.28014 -0.18675,0.93379 v 2.58347 q 0.46689,-0.0312 0.71591,0.15564 0.1245,0.0934 0.18675,0.21787 -0.28014,0 -0.46689,0.12451 -0.15563,0.1245 -0.31126,0.43577 -0.12451,0.28013 -0.12451,0.87154 v 2.83247 q 0,0.84041 0.249,1.24505 0.28014,0.37351 0.74704,0.7159 l 0.0312,0.0312 0.24902,0.15564 q 0.62252,0.43577 1.05829,0 0.12451,-0.1245 0.18675,-0.24901 0.0933,-0.1245 0.15563,-0.18676 0.0623,-0.0934 0.0933,-0.15563 -0.0622,0.43576 -0.43576,0.90267 -0.37352,0.46688 -0.80928,0.93379 -0.43577,0.43576 -0.80928,0.84039 -0.37352,0.37351 -0.43577,0.62253 l -1.21392,-0.87153 q -0.40465,-0.31126 -0.74703,-0.62253 -0.31127,-0.31126 -0.56027,-0.68478 l -0.0623,0.0933 q -0.34239,0.37352 -0.68477,0.5914 -0.31127,0.21788 -0.59141,0.34239 -0.34238,0.12451 -0.62252,0.21788 0.5914,-0.24901 0.87153,-0.62252 0.31127,-0.37352 0.43577,-0.8404 0.12451,-0.46691 0.12451,-0.99605 0,-0.52913 0,-1.08941 v -2.55234 q -0.34239,0 -0.65365,-0.12451 -0.12451,-0.0623 -0.24902,-0.15563 0.24902,0 0.43577,-0.15563 0.15563,-0.12451 0.31127,-0.40464 0.15563,-0.31127 0.15563,-0.90266 v -4.66893 -0.0312 q 0,-0.31126 -0.31127,-0.31126 l -0.52914,0.0312 q 1.15167,-0.49802 1.99208,-1.08941 0.87153,-0.5914 1.36954,-1.15168 0.52915,-0.59139 0.7159,-1.08941 0.18677,-0.49802 0,-0.80928 0.18677,0.15563 0.21789,0.46689 0.0312,0.24901 -0.1245,0.7159 -0.12451,0.43577 -0.56027,1.12055 v 2.27221 l 0.40463,-0.31126 q 0.12451,-0.0934 0.43577,-0.37351 0.31126,-0.28014 0.62253,-0.59141 0.31125,-0.31126 0.56027,-0.5914 0.249,-0.28013 0.249,-0.43576 l 2.42785,1.74307 z"
       id="text1"
       style="font-size:40.3696px;line-height:0.9;font-family:Cambridge;-inkscape-font-specification:Cambridge;text-align:center;text-anchor:middle;fill:#f0f6f0;stroke-width:13.2347;stroke-linecap:round"
       aria-label="hopfer" />
  </g>
</svg>
