<?xml version="1.0" encoding="UTF-8" standalone="no"?>
<!-- Created with Inkscape (http://www.inkscape.org/) -->

<svg
   width="1024"
   height="1024"
   viewBox="0 0 270.93333 270.93333"
   version="1.1"
   id="svg1"
   inkscape:version="1.4 (e7c3feb100, 2024-10-09)"
   sodipodi:docname="background.svg"
   xmlns:inkscape="http://www.inkscape.org/namespaces/inkscape"
   xmlns:sodipodi="http://sodipodi.sourceforge.net/DTD/sodipodi-0.dtd"
   xmlns="http://www.w3.org/2000/svg"
   xmlns:svg="http://www.w3.org/2000/svg">
  <sodipodi:namedview
     id="namedview1"
     pagecolor="#505050"
     bordercolor="#eeeeee"
     borderopacity="1"
     inkscape:showpageshadow="0"
     inkscape:pageopacity="0"
     inkscape:pagecheckerboard="0"
     inkscape:deskcolor="#505050"
     inkscape:document-units="mm"
     inkscape:zoom="0.7046647"
     inkscape:cx="398.06166"
     inkscape:cy="561.25984"
     inkscape:window-width="1920"
     inkscape:window-height="1013"
     inkscape:window-x="0"
     inkscape:window-y="39"
     inkscape:window-maximized="1"
     inkscape:current-layer="layer1" />
  <defs
     id="defs1" />
  <g
     inkscape:label="Layer 1"
     inkscape:groupmode="layer"
     id="layer1">
    <path
       d="m 164.37334,160.30699 q 3.29591,4.5515 2.66812,9.10299 -0.47085,4.55149 -2.51117,8.63214 -2.04033,4.08065 -4.55149,7.5335 -2.51117,3.45286 -3.45286,5.65013 -3.45286,-2.19727 -6.27792,-5.17928 -2.35422,-2.66812 -4.39454,-6.27792 -1.88338,-3.76676 -1.88338,-8.78909 v -15.06701 q -1.09864,0 -1.88338,-0.15695 -0.78474,-0.31389 -1.41253,-0.62779 -0.62779,-0.3139 -1.25558,-0.78474 1.25558,0 2.19727,-0.62779 0.78474,-0.62779 1.56948,-2.04033 0.78474,-1.56948 0.78474,-4.70844 v -5.49318 q 0,-4.23759 -1.41253,-6.12097 -1.25559,-1.88337 -3.60981,-3.6098 l -11.1433,-8.31825 q -0.94169,0.78474 -1.88338,2.04033 -0.78474,1.25558 -0.94169,3.9237 v 13.96837 q 2.35422,-0.15695 3.60981,0.78474 0.62779,0.47084 0.94168,1.09864 -1.41253,0 -2.35421,0.62779 -0.78474,0.62779 -1.56948,2.19727 -0.6278,1.41253 -0.6278,4.39454 v 14.28227 q 0,4.2376 1.25559,6.27792 1.41253,1.88338 3.76675,3.60981 l 0.15695,0.15694 1.25558,0.78474 q 3.13896,2.19728 5.33623,0 0.62779,-0.62779 0.94169,-1.25558 0.47084,-0.62779 0.78474,-0.94169 0.3139,-0.47084 0.47084,-0.78474 -0.31389,2.19727 -2.19727,4.55149 -1.88337,2.35422 -4.08065,4.70844 -2.19727,2.19728 -4.08064,4.2376 -1.88338,1.88338 -2.19727,3.13896 l -6.12098,-4.39454 q -2.04032,-1.56948 -3.76675,-3.13896 -1.56948,-1.56948 -2.82506,-3.45286 l -0.3139,0.47084 q -1.72643,1.88338 -3.45285,2.98202 -1.56948,1.09863 -2.98202,1.72642 -1.72642,0.6278 -3.13896,1.09864 2.98202,-1.25558 4.39455,-3.13896 1.56948,-1.88338 2.19727,-4.2376 0.62779,-2.35422 0.62779,-5.02233 0,-2.66812 0,-5.49318 V 155.7555 q -1.72643,0 -3.29591,-0.62779 -0.62779,-0.3139 -1.25558,-0.78474 1.25558,0 2.19727,-0.78474 0.78474,-0.62779 1.56948,-2.04032 0.78474,-1.56948 0.78474,-4.5515 V 95.644419 q 0,-0.627792 -0.47084,-1.098636 -0.47085,-0.470844 -1.09864,-0.313896 h -2.66811 q 5.80707,-2.511168 10.04467,-5.49318 4.39454,-2.982012 6.90571,-5.807076 2.66812,-2.982012 3.6098,-5.49318 0.94169,-2.511168 0,-4.080648 0.94169,0.78474 1.09864,2.35422 0.15695,1.255584 -0.62779,3.609804 -0.62779,2.197272 -2.82507,5.807076 v 38.923107 l 2.04033,-1.56948 q 0.62779,-0.47085 2.04032,-1.88338 1.56948,-1.41253 3.13896,-2.98201 1.56948,-1.56948 2.82506,-2.98201 1.25559,-1.41254 1.41254,-2.19728 l 12.24194,9.10299 q 2.19727,1.56948 3.76675,3.13896 1.56948,1.41253 2.82507,3.29591 l 0.31389,-0.47085 q 1.56948,-1.72643 3.29591,-2.82506 1.72643,-1.25559 3.13896,-1.88338 1.72643,-0.62779 3.13896,-0.94169 -4.39454,1.88338 -5.65013,5.02234 -1.25558,3.13896 -1.56948,7.21961 v 9.57383 q 1.88338,0.15694 3.29591,0.78474 0.62779,0.31389 1.25558,0.78474 -1.41253,0 -2.35422,0.62779 -0.78474,0.62779 -1.56948,2.19727 -0.62779,1.56948 -0.62779,4.55149 v 9.57383 q 0,6.90571 1.09864,10.20162 1.25558,3.13896 2.19727,4.39454 2.04032,-2.19727 3.29591,-4.86538 1.09863,-2.19728 1.25558,-5.17929 0.3139,-2.98201 -1.41253,-6.43487 z"
       id="text1"
       style="font-size:156.948px;line-height:0.9;font-family:Cambridge;-inkscape-font-specification:Cambridge;text-align:center;text-anchor:middle;opacity:0.075;fill:#222323;stroke-width:66.7337;stroke-linecap:round"
       aria-label="h" />
  </g>
</svg>
