<?xml version="1.0" encoding="UTF-8" standalone="no"?>
<!-- Created with Inkscape (http://www.inkscape.org/) -->

<svg
   width="135.46666mm"
   height="135.46666mm"
   viewBox="0 0 135.46666 135.46666"
   version="1.1"
   id="svg1"
   xml:space="preserve"
   xmlns="http://www.w3.org/2000/svg"
   xmlns:svg="http://www.w3.org/2000/svg"><defs
     id="defs1" /><g
     id="layer1"
     transform="translate(-33.204945,-61.334736)"><rect
       style="fill:#222323;fill-opacity:1;stroke:#f0f6f0;stroke-width:3;stroke-linecap:round;stroke-dasharray:none;stroke-opacity:1"
       id="rect1"
       width="121.42858"
       height="121.42858"
       x="40.223984"
       y="68.353775"
       ry="17.253927" /><path
       style="font-size:128.147px;line-height:0.9;font-family:Cambridge;-inkscape-font-specification:Cambridge;text-align:center;text-anchor:middle;fill:#f0f6f0;stroke-width:302.709;stroke-linecap:round"
       d="m 124.32513,149.82554 q 2.69109,3.71626 2.1785,7.43253 -0.38444,3.71626 -2.05035,7.04808 -1.66591,3.33182 -3.71626,6.15106 -2.05035,2.81923 -2.81924,4.61329 -2.81923,-1.79406 -5.12588,-4.22885 -1.9222,-2.1785 -3.58811,-5.12588 -1.53777,-3.07553 -1.53777,-7.17623 v -12.30212 q -0.89702,0 -1.53776,-0.12814 -0.64073,-0.2563 -1.15332,-0.51259 -0.51259,-0.2563 -1.02518,-0.64074 1.02518,0 1.79406,-0.51258 0.64073,-0.51259 1.28147,-1.66592 0.64073,-1.28147 0.64073,-3.84441 v -4.48514 q 0,-3.45997 -1.15332,-4.99773 -1.02517,-1.53777 -2.94738,-2.94738 l -9.098437,-6.7918 q -0.768882,0.64074 -1.537764,1.66591 -0.640735,1.02518 -0.768882,3.20368 v 11.40508 q 1.922205,-0.12814 2.947381,0.64074 0.512588,0.38444 0.768882,0.89703 -1.153323,0 -1.922205,0.51259 -0.640735,0.51258 -1.28147,1.79405 -0.512588,1.15333 -0.512588,3.58812 v 11.66138 q 0,3.45997 1.025176,5.12588 1.153323,1.53776 3.075528,2.94738 l 0.128147,0.12815 1.025176,0.64073 q 2.56294,1.79406 4.356996,0 0.51259,-0.51259 0.76888,-1.02518 0.38445,-0.51258 0.64074,-0.76888 0.25629,-0.38444 0.38444,-0.64073 -0.25629,1.79406 -1.79406,3.71626 -1.53776,1.92221 -3.33182,3.84441 -1.794058,1.79406 -3.331822,3.45997 -1.537764,1.53776 -1.794058,2.56294 l -4.997733,-3.58812 q -1.665911,-1.28147 -3.075528,-2.56294 -1.28147,-1.28147 -2.306646,-2.81923 l -0.256294,0.38444 q -1.409618,1.53776 -2.819235,2.43479 -1.28147,0.89703 -2.434793,1.40962 -1.409617,0.51259 -2.56294,0.89703 2.434793,-1.02518 3.588116,-2.56294 1.28147,-1.53776 1.794058,-3.45997 0.512588,-1.9222 0.512588,-4.1007 0,-2.1785 0,-4.48515 v -10.50805 q -1.409617,0 -2.691087,-0.51259 -0.512588,-0.2563 -1.025176,-0.64074 1.025176,0 1.794058,-0.64073 0.640735,-0.51259 1.28147,-1.66591 0.640735,-1.28147 0.640735,-3.71627 V 97.028974 q 0,-0.512588 -0.384441,-0.897029 -0.384441,-0.384441 -0.897029,-0.256294 h -2.178499 q 4.74144,-2.050352 8.201409,-4.485145 3.588116,-2.434793 5.638468,-4.741439 2.178499,-2.434793 2.947381,-4.485145 0.768882,-2.050352 0,-3.331822 0.768882,0.640735 0.897029,1.922205 0.128147,1.025176 -0.512588,2.947381 -0.512588,1.794058 -2.306646,4.741439 v 31.780455 l 1.665911,-1.28147 q 0.512588,-0.38444 1.665911,-1.53776 1.28147,-1.15333 2.56294,-2.4348 1.28147,-1.28147 2.306641,-2.43479 1.02518,-1.15332 1.15333,-1.79406 l 9.99546,7.43253 q 1.79406,1.28147 3.07553,2.56294 1.28147,1.15332 2.30665,2.69109 l 0.25629,-0.38444 q 1.28147,-1.40962 2.69109,-2.30665 1.40962,-1.02518 2.56294,-1.53776 1.40962,-0.51259 2.56294,-0.76889 -3.58812,1.53777 -4.61329,4.10071 -1.02518,2.56294 -1.28147,5.89476 v 7.81697 q 1.53776,0.12814 2.69108,0.64073 0.51259,0.2563 1.02518,0.64074 -1.15332,0 -1.9222,0.51259 -0.64074,0.51258 -1.28147,1.79405 -0.51259,1.28147 -0.51259,3.71627 v 7.81696 q 0,5.63847 0.89703,8.32956 1.02517,2.56294 1.79405,3.58812 1.66592,-1.79406 2.69109,-3.97256 0.89703,-1.79406 1.02518,-4.22885 0.25629,-2.4348 -1.15333,-5.25403 z"
       id="text1"
       aria-label="h" /></g></svg>
