<?xml version="1.0" encoding="UTF-8" standalone="no"?>
<!-- Created with Inkscape (http://www.inkscape.org/) -->

<svg
   width="123.32285mm"
   height="49.899113mm"
   viewBox="0 0 123.32285 49.899112"
   version="1.1"
   id="svg1"
   sodipodi:docname="type.svg"
   inkscape:version="1.4 (e7c3feb100, 2024-10-09)"
   xmlns:inkscape="http://www.inkscape.org/namespaces/inkscape"
   xmlns:sodipodi="http://sodipodi.sourceforge.net/DTD/sodipodi-0.dtd"
   xmlns="http://www.w3.org/2000/svg"
   xmlns:svg="http://www.w3.org/2000/svg">
  <sodipodi:namedview
     id="namedview1"
     pagecolor="#505050"
     bordercolor="#eeeeee"
     borderopacity="1"
     inkscape:showpageshadow="0"
     inkscape:pageopacity="0"
     inkscape:pagecheckerboard="0"
     inkscape:deskcolor="#505050"
     inkscape:document-units="mm"
     inkscape:zoom="2.2999252"
     inkscape:cx="212.61561"
     inkscape:cy="86.307156"
     inkscape:window-width="1920"
     inkscape:window-height="1013"
     inkscape:window-x="0"
     inkscape:window-y="39"
     inkscape:window-maximized="1"
     inkscape:current-layer="svg1" />
  <defs
     id="defs1" />
  <g
     id="layer1"
     transform="matrix(1.1406789,0,0,1.1406789,-54.849039,-28.022073)">
    <path
       d="m 73.698183,49.122238 q 0.892981,1.233166 0.72289,2.466332 -0.127569,1.233165 -0.680367,2.338761 -0.552799,1.105597 -1.233166,2.041101 -0.680367,0.935506 -0.935505,1.53083 -0.935505,-0.595324 -1.700918,-1.403259 -0.637844,-0.722889 -1.190642,-1.700919 -0.510276,-1.020551 -0.510276,-2.381285 v -4.082203 q -0.29766,0 -0.510275,-0.04252 -0.212614,-0.08505 -0.382706,-0.170092 -0.170092,-0.08505 -0.340184,-0.212614 0.340184,0 0.595321,-0.170092 0.212615,-0.170092 0.42523,-0.552798 0.212614,-0.42523 0.212614,-1.275688 v -1.488304 q 0,-1.14812 -0.382706,-1.658394 -0.340183,-0.510276 -0.978028,-0.978029 L 63.790336,39.12935 q -0.255138,0.212614 -0.510276,0.552797 -0.212615,0.340184 -0.255137,1.063075 v 3.784541 q 0.637844,-0.04252 0.978028,0.212615 0.170092,0.127569 0.255138,0.297661 -0.382707,0 -0.637845,0.170092 -0.212615,0.170092 -0.42523,0.595321 -0.170091,0.382706 -0.170091,1.190643 v 3.869588 q 0,1.148119 0.340183,1.700918 0.382707,0.510275 1.020551,0.978027 l 0.04252,0.04252 0.340184,0.212615 q 0.850459,0.595321 1.44578,0 0.170092,-0.170092 0.255138,-0.340184 0.127569,-0.170092 0.212615,-0.255137 0.08505,-0.127569 0.127569,-0.212615 -0.08505,0.595321 -0.595322,1.233165 -0.510275,0.637844 -1.105596,1.275687 -0.595322,0.595324 -1.105597,1.148124 -0.510275,0.510271 -0.595321,0.850459 l -1.658395,-1.190647 q -0.552799,-0.42523 -1.020551,-0.850459 -0.425229,-0.425228 -0.765413,-0.935503 l -0.08505,0.127569 q -0.467753,0.510275 -0.935504,0.807934 -0.42523,0.297664 -0.807937,0.467753 -0.467752,0.170094 -0.850458,0.297665 0.807935,-0.340189 1.190642,-0.85046 0.42523,-0.510278 0.595321,-1.148122 0.170092,-0.637844 0.170092,-1.360734 0,-0.72289 0,-1.488303 v -3.486882 q -0.467752,0 -0.892982,-0.170092 -0.170092,-0.08505 -0.340184,-0.212615 0.340184,0 0.595322,-0.212614 0.212615,-0.170092 0.425229,-0.552798 0.212615,-0.42523 0.212615,-1.233166 V 31.602784 q 0,-0.170092 -0.127569,-0.29766 -0.127568,-0.127569 -0.29766,-0.08505 h -0.722891 q 1.573349,-0.680367 2.721469,-1.488303 1.190643,-0.807936 1.871009,-1.573349 0.722891,-0.807936 0.978029,-1.488303 0.255137,-0.680368 0,-1.105597 0.255137,0.212615 0.29766,0.637844 0.04252,0.340184 -0.170092,0.978028 -0.170091,0.595321 -0.765413,1.573349 v 10.545691 l 0.552799,-0.425229 q 0.170091,-0.127569 0.552798,-0.510276 0.425229,-0.382707 0.850459,-0.807936 0.425229,-0.425229 0.765413,-0.807936 0.340183,-0.382707 0.382706,-0.595321 l 3.31679,2.466331 q 0.595322,0.425229 1.020551,0.850458 0.425229,0.382707 0.765413,0.892983 l 0.08505,-0.127569 q 0.425229,-0.467753 0.892982,-0.765414 0.467752,-0.340183 0.850459,-0.510274 0.467752,-0.170092 0.850459,-0.255138 -1.190643,0.510275 -1.530826,1.360734 -0.340184,0.850458 -0.42523,1.956056 v 2.593899 q 0.510276,0.04252 0.892982,0.212615 0.170092,0.08505 0.340184,0.212615 -0.382707,0 -0.637845,0.170092 -0.212614,0.170091 -0.425229,0.59532 -0.170092,0.42523 -0.170092,1.233166 v 2.5939 q 0,1.87101 0.297661,2.763991 0.340183,0.850459 0.595321,1.190643 0.552798,-0.595321 0.892982,-1.318212 0.297661,-0.595321 0.340184,-1.403257 0.08504,-0.807936 -0.382708,-1.743441 z m 15.010562,-4.507432 q 0.297661,0 0.510276,0.08505 0.212614,0.04252 0.382706,0.127569 0.170092,0.08505 0.340183,0.170092 -0.382706,0.04252 -0.637843,0.212615 -0.212615,0.212614 -0.42523,0.59532 -0.170092,0.382707 -0.170092,1.190643 v 3.146698 q 0,0.510275 0.382707,0.680367 0.170092,0.08505 0.425229,0.08505 l -5.145276,3.869589 q -0.170092,0.127568 -0.595322,0.510275 -0.382706,0.382708 -0.807936,0.807937 -0.425229,0.425229 -0.765413,0.850459 -0.340183,0.382706 -0.340183,0.5528 L 78.503238,55.032936 Q 77.355118,54.225 76.717274,53.289495 l -0.08505,0.127569 q -0.467752,0.510275 -0.935505,0.807936 -0.425229,0.297661 -0.807936,0.467753 -0.467752,0.170091 -0.850459,0.29766 0.807936,-0.382706 1.190643,-0.892982 0.425229,-0.510275 0.595321,-1.105596 0.170092,-0.637845 0.170092,-1.360735 0,-0.72289 0,-1.488303 v -2.253716 q -0.297661,0 -0.510275,-0.04252 -0.212615,-0.08505 -0.382707,-0.170091 -0.170092,-0.08505 -0.340184,-0.212615 0.340184,0 0.595322,-0.170092 0.212615,-0.170092 0.425229,-0.552798 0.212615,-0.42523 0.212615,-1.275688 v -1.956059 q 0,-0.297661 -0.127569,-0.42523 -0.127569,-0.170092 -0.255138,-0.255138 -0.170091,-0.08504 -0.382706,-0.08504 l 0.765413,-0.637844 4.33734,-3.231744 q 0.170092,-0.127569 0.595322,-0.510276 0.425229,-0.382706 0.850459,-0.807935 0.425229,-0.42523 0.765413,-0.807937 0.340183,-0.382706 0.340183,-0.59532 l 3.31679,2.46633 q 0.595321,0.42523 1.020551,0.850459 0.42523,0.382706 0.765413,0.892982 l 0.08505,-0.127569 q 0.425229,-0.467753 0.892982,-0.765413 0.467752,-0.340183 0.850458,-0.510275 0.467753,-0.170092 0.85046,-0.255138 -0.765414,0.340184 -1.190643,0.850459 -0.382706,0.510275 -0.552798,1.14812 -0.170092,0.59532 -0.212615,1.318211 0,0.72289 0,1.488303 0,0.04252 0.04252,0.04252 z m -3.784542,-0.552798 q 0,-1.190643 -0.340184,-1.700918 -0.340183,-0.510275 -0.978028,-0.978028 l -3.061652,-2.253716 q -0.255137,0.212614 -0.510275,0.595321 -0.255138,0.382707 -0.255138,1.275688 v 3.571928 q 0.510276,0.04252 0.892982,0.212615 0.170092,0.08505 0.340184,0.212615 -0.382707,0 -0.637845,0.170092 -0.212614,0.170091 -0.425229,0.59532 -0.170092,0.42523 -0.170092,1.233166 v 2.5939 q 0,1.190642 0.340184,1.700918 0.382706,0.510275 1.020551,0.978027 l 3.019129,2.253717 q 0.255138,-0.212615 0.467752,-0.552799 0.255138,-0.340183 0.297661,-1.105596 v -4.975185 q -0.552798,0 -0.892982,-0.212615 -0.170092,-0.08505 -0.340184,-0.212615 0.340184,0 0.595322,-0.170091 0.212614,-0.170092 0.425229,-0.552798 0.212615,-0.42523 0.212615,-1.275689 z m 19.985807,0.552798 q 0.51027,0.04252 0.89298,0.212615 0.17009,0.08505 0.34019,0.212615 -0.38271,0 -0.63785,0.170092 -0.21261,0.170091 -0.42523,0.59532 -0.17009,0.42523 -0.17009,1.233166 v 3.104175 q 0,0.552798 0.38271,0.72289 0.17008,0.08505 0.42523,0.08505 l -0.80794,0.595322 -4.33734,3.274266 q -0.17009,0.127569 -0.595323,0.510278 -0.382707,0.340183 -0.807936,0.765412 -0.42523,0.425229 -0.765413,0.850459 -0.340184,0.382706 -0.340184,0.5528 l -2.083624,-1.48831 v 5.7406 q 0,0.212611 0.127569,0.340181 0.127569,0.12757 0.29766,0.08505 h 0.72289 q -1.573349,0.680361 -2.763991,1.4883 -1.14812,0.807939 -1.87101,1.573349 -0.680367,0.807931 -0.935505,1.488307 -0.255137,0.680362 0,1.105592 -0.255137,-0.212611 -0.29766,-0.637841 -0.04252,-0.340181 0.127569,-0.978029 0.170091,-0.595327 0.807935,-1.573349 V 54.0549 q -0.765412,0.552799 -1.360734,0.765413 -0.340184,0.127569 -0.595321,0.170092 1.275688,-0.595321 1.573349,-1.530826 0.340183,-0.935505 0.382706,-2.126147 v -3.444359 q -0.467752,0 -0.892981,-0.170092 -0.170092,-0.08505 -0.340184,-0.212615 0.340184,0 0.595321,-0.212614 0.212615,-0.170092 0.42523,-0.552798 0.212614,-0.42523 0.212614,-1.233166 v -3.401835 -2.976607 q 0,-0.467752 -0.425229,-0.382706 l -0.765413,-0.255138 q 0.680367,-0.08505 1.700918,-0.680368 1.063073,-0.59532 1.998578,-1.403257 0.978028,-0.850458 1.573349,-1.743441 0.595322,-0.892981 0.340184,-1.573349 0.170092,0.170092 0.212615,0.595322 0,0.340184 -0.170092,0.935504 -0.127569,0.595322 -0.680367,1.573349 v 3.104176 l 0.552798,-0.425229 q 0.170092,-0.127569 0.595321,-0.510276 0.42523,-0.382707 0.850459,-0.807936 0.42523,-0.425229 0.765413,-0.807936 0.340184,-0.382707 0.340184,-0.595321 l 3.316785,2.466331 q 0.59532,0.425229 1.02055,0.850458 0.42523,0.382707 0.76541,0.892983 l 0.085,-0.127569 q 0.42523,-0.467753 0.89299,-0.765414 0.46775,-0.340183 0.85045,-0.510274 0.46776,-0.170092 0.85046,-0.255138 -0.76541,0.340183 -1.14811,0.807935 -0.38271,0.467753 -0.59533,1.063074 -0.17009,0.552798 -0.21261,1.233166 0,0.637844 0,1.360734 z m -3.78455,-0.340184 v -0.212614 q 0,-1.190643 -0.34018,-1.700918 -0.34018,-0.510275 -0.978025,-0.978028 l -3.061652,-2.253716 q -0.255138,0.212614 -0.510275,0.552798 -0.212615,0.340184 -0.255138,1.190643 v 3.656973 q 0.637844,-0.04252 0.978028,0.212615 0.170091,0.127569 0.255137,0.297661 -0.382706,0 -0.637844,0.170092 -0.212615,0.170091 -0.425229,0.59532 -0.170092,0.382707 -0.170092,1.190643 v 2.678946 q 0,1.148119 0.340183,1.658395 0.382707,0.510275 1.020551,0.978027 l 0.382707,0.255138 2.636419,1.956056 q 0.25514,-0.212615 0.51028,-0.552799 0.25513,-0.382706 0.25513,-1.275688 v -4.805093 q -0.46775,0 -0.89298,-0.170092 -0.17009,-0.08505 -0.340179,-0.212615 0.340179,0 0.595319,-0.212614 0.21262,-0.170092 0.42523,-0.552798 0.21261,-0.42523 0.21261,-1.233166 z m 19.81572,-5.953212 q 0.17009,0.297661 0.17009,0.595322 0,0.255137 -0.12757,0.637843 -0.12757,0.340184 -0.59531,0.722891 l -3.06166,2.423807 -5.10275,-3.61445 q -0.25514,0.212615 -0.51027,0.595321 -0.25514,0.382707 -0.25514,1.275688 v 3.614451 h 0.21261 q 1.48831,0 2.42381,1.105596 0.93551,1.063075 0.89298,2.551378 l -0.085,2.381284 -0.12757,-0.680366 q -0.21262,-0.722891 -0.85046,-1.14812 -0.59532,-0.425229 -1.31821,-0.425229 h -1.14812 v 12.119041 1.573349 q 0,0.42523 0.46775,0.42523 l 0.72289,-0.04256 q -1.61587,0.680369 -2.76399,1.4883 -1.14812,0.807946 -1.87101,1.573356 -0.7229,0.807931 -0.97803,1.4883 -0.21262,0.680369 0.0426,1.105599 -0.29766,-0.212619 -0.34019,-0.637848 -0.0426,-0.340181 0.12757,-0.935508 0.17009,-0.595313 0.80793,-1.573342 V 60.43331 49.462391 47.889042 q -0.46774,0 -0.89297,-0.170091 -0.1701,-0.08505 -0.34019,-0.212615 0.34019,0 0.59532,-0.170092 0.21261,-0.170092 0.38271,-0.510276 0.21262,-0.382706 0.25513,-1.105596 v -2.253717 q 0,-0.29766 -0.12756,-0.425229 -0.12757,-0.170091 -0.25514,-0.255137 -0.17009,-0.08505 -0.38271,-0.08505 l 0.76541,-0.637845 4.33735,-3.231744 q 0.34018,-0.255137 0.72289,-0.637844 0.42523,-0.425229 0.76541,-0.807936 0.38271,-0.382706 0.63784,-0.680367 0.25514,-0.29766 0.29766,-0.340183 0.46776,-0.680368 0.38271,-1.105597 -0.0425,-0.170092 -0.17009,-0.340184 0.46775,0.340184 0.46775,0.765413 0,0.42523 -0.12757,0.765414 l 4.97519,3.571927 q 0.46774,-0.255138 0.76541,-0.680367 0.34018,-0.42523 0.21261,-1.020551 z m 8.37703,15.861059 q 2.46634,-1.233165 3.44436,-2.381285 0.97803,-1.190643 1.14813,-2.083624 0.17008,-1.063074 -0.38272,-1.956056 0.80795,0.892982 0.68037,2.083625 -0.12757,0.765412 -0.59532,1.488303 -0.42523,0.72289 -1.02055,1.360734 -0.59532,0.637844 -1.23316,1.190642 -0.63785,0.510276 -1.06308,0.807937 -0.34018,0.29766 -0.72289,0.595321 -0.34018,0.255137 -0.68037,0.595319 -0.51027,0.467753 -0.9355,0.97803 -0.42523,0.467753 -0.42523,0.680365 l -3.35931,-2.423806 q -0.5528,-0.425229 -1.02055,-0.850459 -0.42523,-0.425229 -0.76541,-0.935505 l -0.085,0.127569 q -0.46775,0.510275 -0.93551,0.807936 -0.42523,0.297661 -0.80793,0.467753 -0.46775,0.170091 -0.85046,0.29766 0.80793,-0.340183 1.19064,-0.850459 0.42523,-0.510275 0.59533,-1.148119 0.17008,-0.637845 0.17008,-1.360735 0,-0.72289 0,-1.488303 v -2.16867 q -0.29766,0 -0.51027,-0.04252 -0.21262,-0.08505 -0.38271,-0.170092 -0.17009,-0.08505 -0.34018,-0.212614 0.34018,0 0.59532,-0.170092 0.21261,-0.170092 0.42523,-0.552798 0.21261,-0.42523 0.21261,-1.275689 V 43.46669 q 0,-0.297661 -0.12756,-0.42523 -0.12757,-0.170092 -0.25514,-0.255137 -0.17009,-0.08505 -0.38271,-0.08505 l 0.76541,-0.637844 4.33735,-3.231744 q 0.17009,-0.127569 0.59532,-0.510276 0.42523,-0.382706 0.85045,-0.807935 0.42523,-0.42523 0.76542,-0.807937 0.34018,-0.382706 0.34018,-0.595321 l 3.31679,2.423808 q 0.59532,0.42523 1.02055,0.850459 0.42523,0.425229 0.76541,0.935505 0.34019,0.637844 0.21262,1.403257 -0.085,0.72289 -0.63785,1.190642 l -7.78169,5.527984 v 1.233165 q 0,1.14812 0.34018,1.658395 0.38271,0.510276 1.02055,0.978028 z m -3.86958,-6.250873 q 1.44578,-0.978028 2.55137,-1.828487 0.97803,-0.72289 1.78596,-1.488303 0.80794,-0.807936 0.80794,-1.275688 -0.12757,-0.807937 -0.46775,-1.190643 -0.34019,-0.425229 -0.85046,-0.807936 l -3.06165,-2.253716 q -0.25514,0.212615 -0.51027,0.595321 -0.25514,0.382707 -0.25514,1.275688 v 3.74202 q 0.51027,0.04252 0.89298,0.212615 0.17009,0.08505 0.34018,0.212615 -0.3827,0 -0.63784,0.170092 -0.21262,0.170091 -0.42523,0.59532 -0.17009,0.42523 -0.17009,1.233166 z m 20.5386,-9.397571 q 0.76542,0.467752 0.93551,1.190642 0.1701,0.722891 -0.0426,1.530826 -0.21261,0.807937 -0.76541,1.615872 -0.51027,0.807937 -1.19064,1.44578 -0.68036,0.637845 -1.44578,1.063074 -0.72288,0.382706 -1.36073,0.382706 0.85046,-0.340183 1.44578,-0.850458 0.51027,-0.467753 0.80793,-1.105597 0.29766,-0.680367 -0.0426,-1.615872 -0.21261,-0.467752 -0.59531,-0.807936 -0.38271,-0.382707 -0.7229,-0.680367 l -2.67894,-1.573349 q -0.25514,0.212614 -0.51028,0.595321 -0.25514,0.382707 -0.25514,1.275688 v 3.529405 q 0.63785,-0.04252 0.97803,0.212615 0.17009,0.127569 0.25514,0.297661 -0.38271,0 -0.63785,0.170092 -0.21261,0.170091 -0.42523,0.59532 -0.17009,0.382707 -0.17009,1.190643 v 3.869588 q 0,1.14812 0.34019,1.700918 0.3827,0.510276 1.02054,0.978028 l 0.0426,0.04252 0.34018,0.212615 q 0.85046,0.595321 1.44579,0 0.17009,-0.170092 0.25513,-0.340183 0.12757,-0.170092 0.21262,-0.255138 0.085,-0.127569 0.12757,-0.212615 -0.085,0.595321 -0.59532,1.233166 -0.51028,0.637844 -1.1056,1.275687 -0.59532,0.595323 -1.1056,1.148123 -0.51028,0.510271 -0.59532,0.850459 l -1.6584,-1.190646 q -0.55279,-0.42523 -1.02055,-0.85046 -0.42522,-0.425227 -0.76541,-0.935503 l -0.085,0.127569 q -0.46776,0.510275 -0.93551,0.807934 -0.42523,0.297665 -0.80794,0.467754 -0.46775,0.170093 -0.85046,0.297664 0.80794,-0.340188 1.19064,-0.850459 0.42523,-0.510278 0.59533,-1.148122 0.17009,-0.637845 0.17009,-1.360735 0,-0.72289 0,-1.488303 v -3.486881 q -0.46776,0 -0.89299,-0.170092 -0.17008,-0.08505 -0.34018,-0.212615 0.34018,0 0.59533,-0.212615 0.21261,-0.170092 0.42523,-0.552798 0.21261,-0.425229 0.21261,-1.233166 v -6.378442 -0.04252 q 0,-0.425229 -0.42523,-0.425229 l -0.72289,0.04252 q 1.57335,-0.680367 2.72147,-1.488304 1.19064,-0.807935 1.87101,-1.573349 0.72289,-0.807935 0.97803,-1.488303 0.25513,-0.680366 0,-1.105596 0.25513,0.212615 0.29766,0.637844 0.0426,0.340183 -0.17009,0.978028 -0.17009,0.595321 -0.76542,1.530826 v 3.104175 l 0.5528,-0.42523 q 0.1701,-0.127568 0.59533,-0.510274 0.42523,-0.382707 0.85046,-0.807937 0.42522,-0.425229 0.76541,-0.807935 0.34018,-0.382707 0.34018,-0.595322 l 3.31678,2.381285 z"
       id="text1"
       style="font-size:77.569px;line-height:0.9;font-family:Cambridge;-inkscape-font-specification:Cambridge;text-align:center;text-anchor:middle;fill:#f0f6f0;stroke-width:18.0805;stroke-linecap:round"
       aria-label="hopfer" />
  </g>
</svg>
