<?xml version="1.0" encoding="UTF-8" standalone="no"?>
<!-- Created with Inkscape (http://www.inkscape.org/) -->

<svg
   width="81"
   height="40"
   viewBox="0 0 21.431249 10.583333"
   version="1.1"
   id="svg1"
   inkscape:version="1.4 (e7c3feb100, 2024-10-09)"
   sodipodi:docname="w_icon.svg"
   xmlns:inkscape="http://www.inkscape.org/namespaces/inkscape"
   xmlns:sodipodi="http://sodipodi.sourceforge.net/DTD/sodipodi-0.dtd"
   xmlns="http://www.w3.org/2000/svg"
   xmlns:svg="http://www.w3.org/2000/svg">
  <sodipodi:namedview
     id="namedview1"
     pagecolor="#505050"
     bordercolor="#eeeeee"
     borderopacity="1"
     inkscape:showpageshadow="0"
     inkscape:pageopacity="0"
     inkscape:pagecheckerboard="0"
     inkscape:deskcolor="#505050"
     inkscape:document-units="mm"
     inkscape:zoom="7.972371"
     inkscape:cx="17.309781"
     inkscape:cy="32.675348"
     inkscape:window-width="1920"
     inkscape:window-height="1013"
     inkscape:window-x="0"
     inkscape:window-y="39"
     inkscape:window-maximized="1"
     inkscape:current-layer="layer1" />
  <defs
     id="defs1" />
  <g
     inkscape:label="Layer 1"
     inkscape:groupmode="layer"
     id="layer1">
    <path
       d="M 4.6453369,6.2679435 Q 4.8344191,6.5290573 4.7984034,6.7901693 4.771381,7.051283 4.6543401,7.2853829 4.5372895,7.5194841 4.3932262,7.7175697 4.249163,7.9156552 4.1951409,8.0417095 3.9970568,7.9156552 3.8349869,7.7445815 3.6999284,7.5915151 3.5828779,7.3844256 3.4748311,7.1683324 3.4748311,6.8802081 V 6.0158347 q -0.063028,0 -0.1080474,-0.00899 -0.04502,-0.017994 -0.081035,-0.036016 -0.036016,-0.017994 -0.072032,-0.045019 0.072032,0 0.1260537,-0.036016 0.045019,-0.036016 0.090038,-0.1170505 0.04502,-0.090038 0.04502,-0.270117 V 5.1874838 q 0,-0.2431043 -0.081035,-0.3511518 Q 3.3217616,4.7282846 3.1867046,4.6292436 L 2.5474305,4.1520295 Q 2.4934085,4.1970485 2.4393831,4.26908 2.3943631,4.341111 2.3853611,4.494178 v 0.8013463 q 0.135057,-0.00899 0.2070886,0.045019 0.036016,0.027022 0.054022,0.063028 -0.081035,0 -0.135057,0.036016 -0.045019,0.036016 -0.090038,0.1260537 -0.036015,0.081035 -0.036015,0.2521074 v 0.8193541 q 0,0.2431044 0.072032,0.3601559 0.081035,0.1080474 0.2160948,0.2070885 l 0.00899,0.00899 0.072032,0.04502 q 0.180079,0.1260538 0.3061327,0 0.036016,-0.036016 0.054022,-0.072031 0.027022,-0.036016 0.045019,-0.054022 0.017994,-0.027022 0.027023,-0.045019 Q 3.1687179,7.2133394 3.0606579,7.3483994 2.9526108,7.4834638 2.826557,7.6185207 2.7005033,7.7445744 2.5924559,7.8616251 2.4844084,7.9696725 2.4664022,8.0417041 L 2.115244,7.7896007 Q 1.9981934,7.6995619 1.8991507,7.609523 1.8091128,7.5194851 1.7370811,7.4114376 l -0.017994,0.027022 q -0.099044,0.1080476 -0.198085,0.1710727 -0.090038,0.063028 -0.1710727,0.099044 -0.099041,0.036016 -0.180079,0.063028 Q 1.3409231,7.6995723 1.421961,7.5915252 1.511999,7.4834778 1.5480148,7.3484209 1.5840308,7.213364 1.5840308,7.0602976 q 0,-0.1530664 0,-0.3151359 V 6.0068306 q -0.099044,0 -0.1890822,-0.036016 -0.036016,-0.017994 -0.072032,-0.045019 0.072032,0 0.1260537,-0.04502 0.045019,-0.036015 0.090038,-0.1170505 0.045019,-0.090038 0.045019,-0.2611139 v -2.94427 q 0,-0.036016 -0.027022,-0.063028 -0.027022,-0.027022 -0.063028,-0.017994 H 1.3409104 Q 1.6740543,2.3332558 1.9171593,2.1621831 2.16927,1.9911103 2.3133307,1.8290393 2.466397,1.6579665 2.5204192,1.5139032 q 0.054022,-0.1440632 0,-0.2341011 0.054022,0.045019 0.063028,0.135057 0.00899,0.072031 -0.036016,0.2070884 -0.036015,0.1260539 -0.1620697,0.333144 V 4.1880561 L 2.5024128,4.0980183 Q 2.5384283,4.0709959 2.6194635,3.9899708 2.7095013,3.9089357 2.7995424,3.818898 2.8895802,3.7288602 2.961612,3.6478253 3.0336431,3.5667903 3.042647,3.5217716 l 0.7023035,0.5222257 q 0.1260538,0.090038 0.2160948,0.1800791 0.090038,0.081035 0.1620696,0.1890822 l 0.017994,-0.027022 q 0.090038,-0.099044 0.1890816,-0.1620698 0.099044,-0.072031 0.180079,-0.1080474 0.099044,-0.036016 0.180079,-0.054022 -0.2521075,0.1080475 -0.32414,0.2881233 -0.072032,0.1800791 -0.090038,0.414179 v 0.5492371 q 0.1080474,0.00899 0.1890822,0.045019 0.036016,0.017994 0.072031,0.045019 -0.081035,0 -0.1350568,0.036016 -0.045019,0.036016 -0.090038,0.1260537 -0.036016,0.090038 -0.036016,0.2611139 v 0.5492374 q 0,0.3961711 0.063028,0.5852526 0.072032,0.1800786 0.1260538,0.252107 Q 4.5823066,7.0873017 4.6543381,6.9342353 4.7173666,6.8081815 4.7263698,6.6371057 4.7443634,6.466033 4.645335,6.2679464 Z M 7.8237015,5.3135312 q 0.06303,0 0.108047,0.017994 0.04501,0.00899 0.08104,0.027022 0.03601,0.017994 0.07203,0.036016 -0.08104,0.00899 -0.135058,0.045019 -0.04501,0.045019 -0.09004,0.1260537 -0.03601,0.081035 -0.03601,0.2521075 v 0.6662877 q 0,0.1080474 0.08104,0.1440632 0.03601,0.017994 0.09004,0.017994 L 6.9053062,7.4654616 Q 6.8692906,7.492484 6.7792524,7.573509 6.6982173,7.654544 6.6081796,7.7445817 6.5181418,7.8346195 6.4461102,7.9246608 6.3740791,8.0056958 6.3740791,8.0417114 L 5.662768,7.5194841 Q 5.4196631,7.3484102 5.2846049,7.1503247 l -0.017994,0.027022 Q 5.1675669,7.2853942 5.0685255,7.3484194 4.9784875,7.4114474 4.8974528,7.4474634 4.7984088,7.4834794 4.7173738,7.5104914 4.8884465,7.4294564 4.9694813,7.3214092 5.0595193,7.2133618 5.095535,7.0873081 5.13155,6.9522479 5.13155,6.7991847 q 0,-0.1530664 0,-0.3151359 V 6.0068306 q -0.063028,0 -0.1080474,-0.00899 -0.045019,-0.017994 -0.081035,-0.036016 -0.036016,-0.017994 -0.072032,-0.045019 0.072032,0 0.1260537,-0.036016 0.045019,-0.036016 0.090038,-0.1170505 0.04502,-0.090038 0.04502,-0.270117 v -0.414192 q 0,-0.063028 -0.027022,-0.090038 -0.027022,-0.036016 -0.054022,-0.054022 -0.036016,-0.017994 -0.081035,-0.017994 L 5.1315386,4.7823163 6.0499354,4.0980211 q 0.036015,-0.027022 0.1260537,-0.1080474 0.090038,-0.081035 0.1800791,-0.1710728 0.090038,-0.090038 0.1620695,-0.1710727 0.072031,-0.081035 0.072031,-0.1260538 l 0.7023038,0.5222258 q 0.126054,0.090038 0.216095,0.1800791 0.09004,0.081035 0.16207,0.1890822 l 0.01799,-0.027022 q 0.09004,-0.099044 0.189082,-0.1620695 0.09904,-0.072032 0.18008,-0.1080474 0.09904,-0.036016 0.180079,-0.054022 -0.16207,0.072031 -0.252108,0.1800791 -0.08104,0.1080474 -0.11705,0.2431043 -0.03601,0.1260538 -0.04502,0.2791201 0,0.1530664 0,0.315136 0,0.00899 0.009,0.00899 z M 7.0223555,5.1964806 q 0,-0.2521075 -0.072032,-0.3601555 Q 6.8782922,4.7282776 6.7432354,4.6292366 L 6.0949549,4.1520295 q -0.054022,0.045019 -0.1080474,0.1260537 -0.054022,0.081035 -0.054022,0.270117 v 0.7563266 q 0.1080474,0.00899 0.1890822,0.045019 0.036015,0.017994 0.072031,0.045019 -0.081035,0 -0.1350601,0.036016 -0.045019,0.036016 -0.090038,0.1260538 -0.036015,0.090038 -0.036015,0.2611138 v 0.5492371 q 0,0.2521075 0.072031,0.3601556 0.081035,0.1080474 0.2160948,0.2070885 l 0.639276,0.4772061 q 0.054022,-0.045019 0.099044,-0.1170506 0.054022,-0.072031 0.063028,-0.2341011 V 6.006828 q -0.1170508,0 -0.1890824,-0.045019 -0.036016,-0.017994 -0.072031,-0.04502 0.072031,0 0.1260537,-0.036015 0.045019,-0.036016 0.090038,-0.1170506 0.04502,-0.090038 0.04502,-0.270117 z m 4.2318335,0.1170506 q 0.108047,0.00899 0.189081,0.045019 0.03601,0.017994 0.07203,0.045019 -0.08104,0 -0.135057,0.036016 -0.04501,0.036016 -0.09004,0.1260539 -0.03601,0.090038 -0.03601,0.2611137 v 0.6572839 q 0,0.1170507 0.08104,0.1530665 0.03601,0.017994 0.09004,0.017994 l -0.171075,0.1260529 -0.918396,0.6932994 q -0.03601,0.027022 -0.126055,0.1080474 -0.08104,0.072032 -0.171072,0.1620696 -0.09004,0.090038 -0.1620705,0.1800791 -0.07203,0.081035 -0.07203,0.1170505 l -0.4412,-0.3151225 v 1.2155251 q 0,0.045019 0.02702,0.072032 0.02702,0.027022 0.06303,0.017994 h 0.153066 q -0.333144,0.1440624 -0.585253,0.3151351 -0.243104,0.1710728 -0.396171,0.3331439 -0.144064,0.1710731 -0.198086,0.3151361 -0.05403,0.1440632 0,0.2341012 -0.05403,-0.04501 -0.06303,-0.135057 -0.009,-0.07203 0.02702,-0.2070892 0.03601,-0.126053 0.171073,-0.3331432 v -2.241957 q -0.16207,0.1170506 -0.288124,0.1620696 -0.07203,0.027022 -0.126053,0.036016 0.270117,-0.1260537 0.333144,-0.3241401 0.07203,-0.1980853 0.08104,-0.4501944 V 6.0068306 q -0.09904,0 -0.189083,-0.036016 -0.03601,-0.017994 -0.07203,-0.045019 0.07203,0 0.126053,-0.04502 0.04501,-0.036015 0.09004,-0.1170505 0.04501,-0.090038 0.04501,-0.2611139 V 4.7823016 4.1520295 q 0,-0.099044 -0.09004,-0.081035 l -0.162068,-0.054022 q 0.144063,-0.017994 0.360155,-0.1440632 0.225097,-0.1260538 0.423183,-0.2971296 0.207088,-0.1800791 0.333144,-0.3691594 0.126053,-0.1890822 0.07203,-0.3331439 0.03601,0.036016 0.04501,0.1260538 0,0.072031 -0.03601,0.1980854 -0.02702,0.1260537 -0.144063,0.3331441 v 0.6572839 l 0.117051,-0.090038 q 0.03601,-0.027022 0.126054,-0.1080474 0.09004,-0.081035 0.180078,-0.1710727 0.09004,-0.090038 0.16207,-0.1710728 0.07203,-0.081035 0.07203,-0.1260537 l 0.702303,0.5222257 q 0.126055,0.090038 0.216092,0.1800791 0.09004,0.081035 0.162069,0.1890822 l 0.01799,-0.027022 q 0.09004,-0.099044 0.189082,-0.1620694 0.09904,-0.072031 0.18008,-0.1080474 0.09904,-0.036015 0.180079,-0.054022 -0.16207,0.072031 -0.243105,0.1710727 -0.08104,0.099041 -0.126054,0.2250981 -0.03601,0.1170505 -0.04503,0.2611137 0,0.135057 0,0.2881233 z m -0.801346,-0.072031 v -0.04502 q 0,-0.2521075 -0.07203,-0.3601555 -0.07204,-0.1080472 -0.207092,-0.2070882 L 9.5254415,4.1520295 q -0.05402,0.045018 -0.108048,0.1170505 -0.04501,0.072031 -0.05403,0.2521107 v 0.7743345 q 0.135057,-0.00899 0.207088,0.04502 0.03601,0.027022 0.05403,0.063028 -0.08104,0 -0.135057,0.036015 -0.04501,0.036016 -0.09004,0.1260537 -0.03601,0.081035 -0.03601,0.2521075 v 0.5672451 q 0,0.2431043 0.07203,0.3511518 0.08104,0.1080474 0.216094,0.2070884 l 0.08104,0.054022 0.5582415,0.4141786 q 0.05402,-0.04502 0.108048,-0.1170506 0.05403,-0.081035 0.05403,-0.270117 v -1.017439 q -0.09904,0 -0.189083,-0.036016 -0.03601,-0.017994 -0.07203,-0.045018 0.07203,0 0.126054,-0.045019 0.04501,-0.036016 0.09004,-0.1170506 0.04501,-0.090038 0.04501,-0.2611139 z m 4.195816,-1.2605444 q 0.03601,0.063028 0.03601,0.1260537 0,0.054022 -0.02702,0.1350569 -0.02702,0.072032 -0.126053,0.1530664 L 13.883329,4.9083563 12.802862,4.1430256 q -0.05403,0.045019 -0.108048,0.1260537 -0.05402,0.081035 -0.05402,0.270117 V 5.304527 h 0.04501 q 0.315137,0 0.513222,0.2341011 0.198085,0.2250981 0.189082,0.5402334 L 13.37012,6.5830793 13.343101,6.4390161 Q 13.298071,6.2859497 13.16302,6.1959118 13.036966,6.1058738 12.8839,6.1058738 h -0.243104 v 2.5661084 0.3331439 q 0,0.090038 0.09904,0.090038 l 0.153066,-0.00899 q -0.342147,0.1440633 -0.585252,0.315136 -0.243105,0.1710727 -0.396172,0.3331435 -0.153066,0.1710732 -0.207088,0.3151364 -0.04501,0.144063 0.009,0.234101 -0.06303,-0.04502 -0.07203,-0.135057 -0.009,-0.07203 0.02702,-0.1980852 0.03601,-0.126054 0.171073,-0.3331439 V 8.6629779 6.3399748 6.0068306 q -0.09904,0 -0.189083,-0.036016 -0.03601,-0.017994 -0.07203,-0.045019 0.07203,0 0.126054,-0.036016 0.04501,-0.036016 0.08104,-0.1080474 0.04501,-0.081035 0.05403,-0.2341011 V 5.0704262 q 0,-0.063028 -0.02702,-0.090038 -0.02702,-0.036016 -0.05403,-0.054022 -0.03601,-0.017994 -0.08104,-0.017994 L 11.839422,4.7733157 12.757818,4.08902 q 0.07203,-0.054022 0.153066,-0.1350568 0.09004,-0.090038 0.16207,-0.1710728 0.08104,-0.081035 0.135057,-0.1440633 0.05403,-0.063028 0.06303,-0.072031 0.09904,-0.1440633 0.08104,-0.2341012 -0.009,-0.036016 -0.03601,-0.072031 0.09904,0.072031 0.09904,0.1620694 0,0.090038 -0.02702,0.1620696 l 1.053455,0.7563269 q 0.09904,-0.054022 0.16207,-0.1440632 0.07203,-0.090038 0.04501,-0.2160949 z m 1.773769,3.3584505 q 0.522225,-0.2611138 0.729315,-0.5042178 0.207088,-0.2521075 0.243104,-0.4411907 0.03601,-0.225098 -0.08104,-0.4141786 0.171072,0.1890822 0.144063,0.4411904 -0.02702,0.1620694 -0.126054,0.3151359 -0.09004,0.1530664 -0.216091,0.2881233 -0.126054,0.1350569 -0.261114,0.2521075 -0.135057,0.1080474 -0.225098,0.1710727 -0.07203,0.063028 -0.153066,0.1260537 -0.07203,0.054022 -0.144063,0.1260538 -0.108048,0.099041 -0.198086,0.2070885 -0.09004,0.099044 -0.09004,0.1440632 L 15.332957,7.537492 Q 15.215906,7.447454 15.116862,7.357413 15.026822,7.267375 14.954793,7.1593276 l -0.01799,0.027022 q -0.09904,0.1080475 -0.198086,0.1710728 -0.09004,0.063028 -0.171073,0.099044 -0.09904,0.036016 -0.180079,0.063028 0.171073,-0.072031 0.252108,-0.1800791 0.09004,-0.1080474 0.126054,-0.2431042 0.03601,-0.135057 0.03601,-0.2881233 0,-0.1530664 0,-0.315136 v -0.45921 q -0.06303,0 -0.108047,-0.00899 -0.04501,-0.017994 -0.08104,-0.036016 -0.03601,-0.017994 -0.07203,-0.045019 0.07203,0 0.126054,-0.036016 0.04501,-0.036016 0.09004,-0.1170507 0.04501,-0.090038 0.04501,-0.2701169 v -0.450207 q 0,-0.063028 -0.02702,-0.090038 -0.02702,-0.036016 -0.05402,-0.054022 -0.03602,-0.017994 -0.08104,-0.017994 l 0.16207,-0.1350568 0.918396,-0.6842957 q 0.03601,-0.027022 0.126054,-0.1080475 0.09004,-0.081035 0.180079,-0.1710727 0.09004,-0.090038 0.162069,-0.1710727 0.07203,-0.081035 0.07203,-0.1260537 l 0.702304,0.5132216 q 0.126053,0.090038 0.216094,0.1800791 0.09004,0.090038 0.16207,0.1980853 0.07203,0.135057 0.04501,0.2971297 -0.01799,0.1530664 -0.135057,0.2521075 L 15.60305,6.1238808 v 0.2611138 q 0,0.2431043 0.07203,0.3511518 0.08104,0.1080474 0.216093,0.2070884 z M 15.603074,6.0158347 q 0.306132,-0.2070895 0.540233,-0.3871673 0.20709,-0.153066 0.378163,-0.3151362 0.171074,-0.1710737 0.171074,-0.2701167 -0.02701,-0.171074 -0.09904,-0.2521088 -0.07203,-0.090039 -0.180078,-0.1710739 L 15.765144,4.1430257 q -0.05403,0.045019 -0.108048,0.1260537 -0.05402,0.081035 -0.05402,0.270117 v 0.7923424 q 0.108048,0.00899 0.189083,0.045019 0.03601,0.017994 0.07203,0.045019 -0.08104,0 -0.135056,0.036016 -0.04501,0.036016 -0.09004,0.1260537 -0.03601,0.090038 -0.03601,0.2611139 z M 19.951961,4.025975 q 0.162069,0.099044 0.198088,0.2521075 0.03602,0.1530665 -0.0089,0.3241398 -0.04501,0.1710727 -0.162069,0.3421479 -0.108058,0.1710727 -0.252102,0.3061328 -0.144076,0.1350602 -0.306145,0.2250981 -0.153073,0.081035 -0.28812,0.081035 0.180063,-0.072032 0.306145,-0.1800791 0.108058,-0.099044 0.171067,-0.2341012 0.06301,-0.1440632 -0.0089,-0.3421479 -0.04501,-0.099044 -0.12605,-0.1710727 -0.08104,-0.081035 -0.153073,-0.1440633 L 18.754441,4.1520295 q -0.05402,0.045018 -0.108056,0.1260537 -0.05402,0.081035 -0.05402,0.270117 V 5.295523 q 0.135048,-0.00899 0.207085,0.045018 0.03602,0.027022 0.05402,0.063028 -0.08104,0 -0.135047,0.036016 -0.04501,0.036016 -0.09003,0.1260538 -0.03602,0.081035 -0.03602,0.2521074 V 6.6371 q 0,0.2431044 0.07203,0.3601559 0.08104,0.1080475 0.216082,0.2070885 l 0.0089,0.00899 0.07203,0.045019 q 0.180095,0.1260537 0.306147,0 0.03602,-0.036015 0.05402,-0.072031 0.02712,-0.036015 0.04501,-0.054022 0.01787,-0.027023 0.02711,-0.04502 -0.01787,0.1260537 -0.12605,0.2611138 -0.108033,0.1350655 -0.234084,0.2701223 -0.126051,0.1260537 -0.234107,0.2431044 -0.108058,0.1080474 -0.126051,0.180079 L 18.322287,7.7895954 Q 18.205233,7.6995574 18.106205,7.6095163 18.016175,7.5194783 17.944135,7.411431 l -0.01799,0.027022 q -0.09904,0.1080474 -0.198085,0.1710727 -0.09004,0.063028 -0.171073,0.099044 -0.09904,0.036016 -0.180079,0.063028 0.171072,-0.072031 0.25211,-0.1800789 0.09004,-0.1080475 0.126055,-0.2431044 0.03601,-0.1350569 0.03601,-0.2881233 0,-0.1530664 0,-0.3151359 V 6.0068306 q -0.09904,0 -0.189083,-0.036016 -0.03601,-0.017994 -0.07203,-0.045019 0.07203,0 0.126053,-0.04502 0.04503,-0.036015 0.09004,-0.1170505 0.04501,-0.090038 0.04501,-0.2611139 v -1.3505836 -0.00899 q 0,-0.090038 -0.09004,-0.090038 l -0.153067,0.00899 q 0.333144,-0.1440633 0.57625,-0.3151361 0.252101,-0.1710727 0.39617,-0.3331438 0.153073,-0.1710727 0.207085,-0.315136 0.05402,-0.1440632 0,-0.2341011 0.05402,0.045019 0.06304,0.135057 0.0089,0.072031 -0.03602,0.2070884 -0.03602,0.1260537 -0.162069,0.3241401 V 4.188042 l 0.117054,-0.090038 q 0.03602,-0.027022 0.12605,-0.1080475 0.09003,-0.081035 0.180095,-0.1710727 0.09003,-0.090038 0.16207,-0.1710727 0.07203,-0.081035 0.07203,-0.1260537 l 0.702303,0.5042178 z"
       id="text1"
       style="opacity:1;fill:@primary;fill-opacity:1"
       aria-label="hopfer" />
  </g>
</svg>
